<?xml version="1.0" encoding="utf-8"?>
<svg version="1.1" id="Layer_1" x="0px" y="0px" viewBox="0 0 1288.249 1724.076" enable-background="new 0 0 1288.249 1724.076" xmlns="http://www.w3.org/2000/svg">
  <g>
    <path stroke="#684529" stroke-width="0.0438" d="M870.266,671.607c19.442-5.349,39.594-8.287,59.774-8.226 c2.602,0.21,5.508-0.322,7.811,1.215c2.041,1.158,3.461,3.508,3.125,5.9c-0.388,2.761-1.897,5.213-3.569,7.39 c-4.933,6.395-12.131,10.894-19.928,12.893c-4.699,0.962-9.156,2.784-13.659,4.382c-28.159,10.482-54.108,26.79-75.83,47.54 c-20.101,19.325-37.151,42.107-48.554,67.632c-12.762,26.561-20.003,55.892-20.073,85.406c3.247,3.158,6.792,6.049,10.006,9.268 c9.259,8.913,17.508,18.839,24.833,29.397c0.439,0.682,0.972,1.285,1.677,1.747c-2.121-5.101-4.839-9.959-6.559-15.229 c-5.167-14.803-6.143-30.887-3.779-46.335c1.854-11.907,5.587-23.562,11.309-34.185c3.569-6.563,7.899-12.771,13.337-17.929 c5.358-5.223,12.258-9.31,19.891-9.67c-3.036,6.175-4.526,12.991-5.171,19.811c-1.224,13.762,0.939,27.631,4.933,40.799 c5.947,19.461,15.649,37.576,26.893,54.463c10.043,15.07,21.469,29.168,33.526,42.663c11.071,12.65,21.778,25.636,31.779,39.15 c0.532,0.579,0.836,1.555,1.686,1.77c6.395-16.887,14.075-33.26,22.366-49.292c3.63-7.231,7.824-14.444,8.96-22.581 c0.206-2.836,0.565-6.246-1.64-8.427c-2.205-2.205-3.373-5.279-3.541-8.357c-0.313-5.05,1.57-10.011,4.41-14.112 c1.612-2.326,4.078-4.391,7.03-4.48c1.897-0.159,3.69,0.575,5.353,1.411c-0.019-6.362,0.084-12.743,1.187-19.026 c-6.727,6.171-16.677,7.941-25.421,6.031c-4.129-0.766-7.582-3.681-11.851-3.859c-5.685-0.617-11.221,1.812-15.532,5.367 c-1.317-0.92-0.304-2.359-0.065-3.555c1.78-6.423,0.841-13.154,0.159-19.671c-0.57-5.335-0.35-10.87,1.63-15.915 c2.593-7.026,7.726-12.986,14.051-16.943c2.938-1.892,6.19-3.205,9.455-4.424c-2.714-1.481-4.676-4.129-5.353-7.133 c-0.878-3.485-0.42-7.152,0.57-10.557c0.897-3.209,0.953-6.9-0.878-9.8c-2.004-3.219-5.4-5.223-8.791-6.685 c-1.303-0.612-2.864-1.037-3.63-2.345c-0.369-1.56,1.602-2.009,2.751-2.069c3.345-0.07,6.717,0.304,10.057-0.168 c6.157-0.631,11.758-3.419,17.686-4.952c6.133-1.616,12.659-0.43,18.344,2.172c6.587,2.812,12.23,7.563,16.396,13.36 c0.878-6.171,6.582-10.319,12.258-11.828c4.33-1.21,9.156,0.649,11.884,4.148c1.07,1.443,2.462,2.639,4.073,3.457 c4.634,2.41,9.796,3.536,14.911,4.424c3.844,0.617,7.946,0.85,11.342,2.976c2.182,1.294,3.826,3.611,3.938,6.199 c0.252,3.508-1.458,6.722-3.135,9.674c8.427-2.121,17.578-1.883,25.641,1.542c4.844,2.06,9.198,5.344,12.346,9.586 c4.634,6.479,9.544,12.823,15.285,18.368c0.836,0.934,2.298,1.556,2.555,2.868c-0.841,0.747-2.051,0.757-3.055,1.121 c-5.115,1.514-9.483,5.031-12.543,9.347c-4.676,6.339-12.356,9.562-19.834,11.221c2.896,3.975,5.115,8.521,5.792,13.435 c1.355,10.169-2.723,20.432-9.128,28.21c-1.808,2.401-4.76,3.714-6.227,6.4c-1.037,1.556-1.383,3.401-1.869,5.171 c-0.439,1.215-1.649,0.173-1.658-0.668c-0.659-2.611-3.069-4.172-5.311-5.311c-5.54-2.803-11.753-4.017-17.158-7.105 c-4.905-2.896-8.24-7.909-9.94-13.262c-1.369-4.223-1.878-8.679-1.827-13.098c-5.377,6.288-10.426,12.865-15.462,19.433 c-3.312,4.545-6.867,8.988-9.263,14.107c1.794-0.276,3.504-0.99,5.339-1.051c4.442-0.322,9.02,1.219,12.328,4.214 c-4.358,1.686-7.259,5.596-9.773,9.347c-3.433,5.676-7.937,11.076-14.079,13.907c-1.756,0.822-3.662,1.238-5.568,1.495 c-3.882,3.433-7.782,6.834-11.744,10.174c-2.415,2.097-5.232,3.844-6.956,6.619c-1.579,2.167-2.41,4.737-3.648,7.091 c-9.866,15.219-17.228,31.975-22.721,49.231c10.099,14.981,19.194,30.663,26.762,47.078c7.96,17.251,14.149,35.329,18.33,53.865 c7.684,33.811,8.81,68.724,7.502,103.25c-0.444,10.66-0.925,21.325-1.995,31.947c-1.803,19.096-3.457,38.207-5.307,57.299 c4.218,7.979,8.432,15.967,12.314,24.123c0.462,0.911,0.752,2.013,1.658,2.644c-0.948-12.828-2.793-25.604-2.789-38.487 c-0.542-41.43,8.058-82.776,23.814-121.034c7.399-17.999,16.345-35.362,26.725-51.824c4.751-7.568,9.81-14.962,14.019-22.857 c3.975-7.371,7.25-15.093,10.37-22.857c7.353-18.685,13.846-37.698,20.39-56.677c3.116-9.179,6.283-18.344,9.296-27.561 c7.138-22.6,11.79-46.176,11.613-69.948c-0.224-19.344-3.588-39.057-12.594-56.35c-1.691-3.209-3.588-6.311-5.867-9.132 c15.621,8.025,28.336,20.928,37.88,35.539c15.028,23.156,22.343,50.647,24.057,78.021c1.5,21.306-0.5,42.911-6.526,63.427 c-5.199,18.027-13.112,35.161-22.324,51.469c-18.265,32.059-41,61.288-64.516,89.624c-22.179,26.982-40.122,57.756-50.572,91.184 c-7.469,24.095-11.328,49.554-9.254,74.783c0.047,2.284,1.364,4.232,2.21,6.292c6.54,14.724,12.631,29.677,17.527,45.036 c1.943,7.619,3.751,15.275,5.601,22.922c0.374,1.093,0.187,2.536,1.187,3.34c-0.346-4.699,0.332-9.389,0.869-14.042 c2.205-17.027,8.123-33.849,18.76-47.465c10.744-14.005,26.038-24.029,42.523-30.004c19.876-7.194,41.36-9.422,62.381-7.843 c10.025,0.49,20.152-2.14,28.673-7.46c11.412-7.105,20.045-18.083,25.711-30.163c-0.827,9.73-2.154,19.461-4.667,28.916 c-2.312,8.521-5.62,16.91-10.898,24.053c-4.143,5.643-9.525,10.366-15.644,13.766c-8.74,4.9-18.597,7.339-28.411,8.955 c-11.8,1.854-23.74,2.593-35.656,3.172c-4.914,0.341-9.866,0.262-14.733,1.107c-9.146,1.434-17.947,5.045-25.431,10.506 c-11.795,8.563-20.176,21.03-26.047,34.218c-5.372,12.043-8.852,24.87-11.048,37.856c-0.411,1.56,0.285,3.093,0.612,4.611 c2.695,11.375,5.792,22.665,7.764,34.199c4.209,24.043,5.559,48.502,5.405,72.887c-0.248,27.645-2.354,55.281-6.297,82.65 c-0.467,3.004-0.967,6.129-2.527,8.792c-0.467,0.733-1.387,1.705-2.317,1.168c-1.486-0.785-1.668-2.826-1.369-4.279 c1.906-5.522,2.635-11.342,3.382-17.102c1.528-13.103,2.2-26.286,2.784-39.459c0.5-13.552,0.841-27.108,0.822-40.669 c0.294-10.305-0.579-20.596-1.691-30.831c-2.256-19.937-5.699-39.725-9.843-59.354c-0.355-3.312-2.485-6.026-4.363-8.633 c-0.107,0.92,0.304,2.154-0.631,2.793c-1.056,0.556-2.252-0.014-3.191-0.518c-2.882-1.686-5.176-4.153-7.479-6.516 c-13.159-13.682-25.692-27.963-37.553-42.78c-0.916-1.089-1.668-2.378-2.91-3.102c-17.975-10.146-38.277-15.971-58.84-17.396 c-21.04-1.373-42.528,1.219-62.222,8.936c-4.741,1.892-9.366,4.111-13.659,6.876c-14.444,9.548-30.434,16.49-46.723,22.212 c-9.59,3.326-19.335,6.208-29.196,8.609c-8.871,2.186-17.989,3.373-27.126,3.513c-10.352-0.056-20.951-1.808-30.093-6.881 c-6.946-3.821-12.795-9.567-16.798-16.401c-4.414-7.469-6.82-16.032-7.427-24.66c5.704,5.685,13.696,8.441,21.6,9.076 c11.907,0.976,23.777-1.303,35.311-4.05c20.685-5.166,40.729-12.519,60.97-19.157c19.779-6.713,39.954-12.505,60.657-15.528 c10.968-1.546,22.137-2.555,33.18-1.219c21.007,2.06,41.467,8.609,60.078,18.508c-1.64-3.162-3.952-5.928-5.816-8.96 c-11.216-16.957-21.395-34.671-29.406-53.379c-0.402-1.14-1.686-1.439-2.607-1.99c-17.961-9.347-37.076-16.125-55.911-23.445 c-16.013-6.194-31.821-13.024-46.849-21.357c-15.336-8.525-30.237-18.27-42.397-31.046c-11.548-11.804-20.54-26.314-24.959-42.29 c-3.447-12.323-4.157-25.384-2.205-38.02c1.191-7.624,3.163-15.191,6.488-22.179c0.92-2.069,2.396-3.826,4.12-5.279 c1.046,1.088,0.476,2.691,0.607,4.045c0.238,8.675,2.438,17.284,6.376,25.02c3.606,7.086,8.479,13.477,14.005,19.171 c12.701,13.159,27.981,23.403,43.032,33.647c22.282,14.752,43.742,30.719,64.488,47.559c6.409,5.097,12.627,10.445,19.068,15.5 c-4.354-11.23-9.123-22.306-13.565-33.503c-0.57-1.359-0.743-2.91-1.584-4.12c-13.538-12.856-25.048-27.743-34.909-43.57 c-10.015-15.798-15.392-34.456-15.341-53.155c0.135-21.273,6.162-42.575,17.49-60.606c-15.7-16.406-30.994-33.194-46.293-49.969 c-26.365-25.515-49.605-54.659-66.151-87.522c-9.95-19.947-17.335-41.318-20.423-63.437c-0.178-0.659-0.005-1.523-0.705-1.859 c-11.006-7.114-22.693-13.201-34.904-17.961c-3.518-1.962-7.11-4.242-11.253-4.442c-6.885-0.346-13.752-1.07-20.615-1.63 c-7.301,3.98-16.167,2.55-23.544-0.458c-4.69-1.812-9.88-3.751-14.93-2.317c1.074-4.111,3.48-7.941,7.054-10.305 c1.649-1.191,3.574-1.883,5.484-2.523c-2.097-1.677-4.765-2.373-7.213-3.359c-10.651-3.732-21.577-6.587-32.442-9.581 c2.443,3.644,4.788,7.418,6.138,11.632c1.78,5.251,2.116,11.183-0.065,16.373c-2.831,6.596-8.268,11.725-10.88,18.433 c-0.874,1.967-0.659,4.125,0.089,6.096c-0.229,1.018-1.364,0.775-1.812,0.103c-2.177-2.111-5.101-3.471-8.151-3.536 c-3.63-0.033-7.124-1.196-10.445-2.56c-6.68-2.859-12.898-7.287-16.859-13.472c-3.144-4.826-4.634-10.646-4.377-16.382 c-7.278,3.139-15.728,5.138-23.436,2.35c-5.372-1.714-11.393-1.658-16.583,0.64c-0.626,0.425-1.294,0.159-1.855-0.206 c1.551-5.989,1.957-12.201,2.266-18.354c0.266-4.924-0.369-9.927,0.813-14.766c2.583-11.281,11.622-20.227,22.053-24.679 c0.369-0.313,1.49-0.248,1.126-0.939c-3.219-1.378-6.573-3.214-8.222-6.456c-1.135-2.111-0.995-4.695,0.019-6.82 c1.448-3.424,4.33-5.877,6.9-8.436c3.172-3.111,6.148-6.46,8.525-10.221c1.285-2.186,2.649-4.503,2.621-7.124 c0.07-3.475,1.542-7.007,4.293-9.203c2.611-2.121,6.045-2.868,9.329-3.111c3.821-0.252,7.792,0.972,10.487,3.77 c-0.126-9.366,3.228-18.695,9.259-25.856c2.079-2.471,4.62-4.568,7.497-6.045c4.129-2.177,8.763-3.046,13.131-4.606 c4.597-1.565,8.899-3.975,12.622-7.086c1.308-1.042,2.709-2.182,4.428-2.364c1.63,0.514,1.037,2.35,0.35,3.41 c-2.219,3.723-4.513,7.829-4.078,12.328c0.271,3.312,2.354,6.161,4.905,8.161c3.144,2.49,6.035,5.615,7.198,9.544 c0.799,2.551,0.537,5.358-0.631,7.759c9.076-3.088,19.395-2.999,28.051,1.355c5.895,2.826,10.585,7.717,13.813,13.351 c3.583,6.129,6.914,12.767,12.79,17.064c0.701,0.533,2.172,1.467,0.981,2.317c-4.475-0.098-9.123,0.542-12.977,2.976 c-2.593,1.551-4.718,3.821-6.133,6.488c-3.377,6.717-9.693,11.683-16.714,14.164c-3.546,1.233-7.362,1.831-11.094,1.233 c2.289,2.429,4.671,4.769,6.703,7.427c1.957,2.34,3.503,4.994,5.498,7.306c1.121-2.322,2.957-4.47,5.517-5.19 c3.457-1.004,6.965,0.518,10.015,2.055c4.966,2.611,9.431,7.147,10.249,12.902c0.374,1.985-0.598,4.064,0.206,5.993 c1.196,3.055,3.611,5.433,6.073,7.521c5.47,4.536,11.987,7.502,18.27,10.721c11.351,5.718,22.507,11.823,33.451,18.288 c-0.341-16.42,1.752-32.886,6.255-48.675c4.073-14.434,10.127-28.262,17.503-41.299c13.351-23.88,30.849-45.545,52.029-62.927 C814.644,693.119,841.701,679.488,870.266,671.607 M891.572,679.74c-15.644,3.966-30.616,10.37-44.602,18.391 c-26.019,14.953-48.624,35.329-67.874,58.237c-7.189,8.633-14.145,17.503-20.241,26.954c-8.89,13.85-15.78,28.995-20.213,44.849 c-4.326,15.289-6.227,31.195-6.255,47.064c2.345,1.705,4.746,3.34,7.143,4.98c1.355-30.088,10.529-59.592,25.272-85.78 c6.274-11.197,13.608-21.764,21.259-32.059c17.12-22.773,37.076-43.7,60.611-59.919c13.15-9.002,27.397-16.611,42.659-21.353 c6.255-1.869,12.627-3.541,19.152-4.045C902.858,677.236,897.103,678.404,891.572,679.74 M598.6,702.835 c-3.975,3.018-8.535,5.19-13.285,6.671c-4.293,1.387-8.815,2.354-12.678,4.793c-3.915,2.434-6.839,6.148-9.128,10.085 c-3.863,6.657-5.746,14.565-4.76,22.231c0.696,1.976,1.173,4.013,1.542,6.077c2.546,6.741,5.358,13.393,8.535,19.862 c1.883,3.676,3.784,7.423,6.563,10.52c-0.28,0.518-0.986,1.654-1.644,0.906c-1.789-1.728-3.013-3.938-4.27-6.054 c-4.106-7.404-7.311-15.261-10.487-23.095c-1.046-1.826-1.537-3.882-1.859-5.937c-0.201-2.415-2.004-4.372-3.971-5.596 c-3.831-2.238-8.619-1.808-12.641-0.346c-3.756,1.387-6.194,5.311-6.175,9.263c0.061,2.523-1.079,4.858-2.27,7.021 c-2.625,4.517-6.171,8.408-9.842,12.094c-2.686,2.56-5.718,5.218-6.633,8.974c-0.598,2.317,0.659,4.648,2.392,6.129 c2.275,1.957,5.092,3.251,7.988,4.008c7.881-1.126,15.883-1.798,23.842-1.149c5.227,0.388,10.515,1.098,15.467,2.887 c0.21-0.252,0.43-0.495,0.654-0.724c-1.658-0.504-2.99-1.756-4.671-2.228c-6.946-2.41-14.416-2.695-21.698-2.555 c0.009-0.159,0.023-0.476,0.033-0.631c5.381-0.042,10.791,0.131,16.097,1.102c3.76,0.645,7.404,1.948,10.581,4.078 c-0.117,0.28-0.35,0.841-0.467,1.121c0.313,0.019,0.944,0.056,1.257,0.075c1.476,1.233,3.84,1.243,4.849,3.018 c0.831-0.201,1.855,0.075,1.826,1.13c-0.598,0.766-1.64,0.794-2.485,1.102c-4.643,1.257-8.96,3.653-12.552,6.848 c-5.18,4.564-8.955,10.506-11.781,16.761c-3.284,7.367-5.414,15.229-6.573,23.202c-0.808,5.858,0.182,12.015,3.205,17.139 c3.714,6.334,9.889,10.908,16.569,13.748c3.251,1.322,6.666,2.49,10.221,2.462c2.513,0.065,4.854,1.088,6.998,2.331 c0.079-2.2,0.78-4.312,1.794-6.246c2.336-4.508,5.596-8.446,8.189-12.799c1.831-2.952,2.99-6.353,3.032-9.843 c0.159-7.661-3.541-14.803-8.156-20.689c-6.358-8.123-6.815-19.783-2.747-29.014c-0.313-0.234-0.598-0.453-0.888-0.663 c2.107-0.883,2.191-3.508,3.7-4.994c3.994-4.569,10.352-5.956,16.149-6.395c6.175-0.271,12.982,0.514,17.854,4.685 c3.181,2.434,7.535,2.406,11.277,1.551c6.334-1.509,12.239-5.138,16.247-10.3c1.808-2.284,2.761-5.134,4.755-7.283 c3.718-4.372,9.436-6.619,15.079-6.942c-1.35-1.187-2.658-2.424-3.812-3.802c-4.629-5.302-7.128-12.038-11.459-17.55 c-2.817-3.62-6.573-6.465-10.739-8.362c-8.091-3.751-17.569-3.667-25.907-0.761c-2.228,0.701-4.326,1.761-6.236,3.106 c-7.759,5.054-14.486,11.949-18.494,20.362c-3.709,7.596-5.017,16.242-4.172,24.623c0.14,0.084,0.425,0.252,0.565,0.332 c0.042,0.36,0.117,1.084,0.159,1.443c1.154-0.378,1.313-2.172,1.7-3.237c0.402-0.168,0.813-0.318,1.238-0.453 c2.256-2.7,5.152-4.802,8.231-6.474c7.437-3.952,15.892-5.517,24.221-6.105c3.074,0.009,6.175-0.486,9.235,0.079 c-0.374,0.29-0.785,0.416-1.243,0.369c-8.095-0.229-16.275,0.565-24.043,2.924c-6.549,1.999-12.963,5.391-17.158,10.954 c-1.07,1.359-1.084,3.172-1.616,4.765c-0.093-0.238-0.276-0.71-0.369-0.944c-0.182-0.005-0.542-0.014-0.724-0.019l0.262-0.766 l-0.271-0.224c-0.841-0.112-1.911-0.308-1.859-1.392c-1.668-10.964,0.93-22.469,6.937-31.77c4.578-7.133,11.038-12.93,18.27-17.284 c1.135-0.682,2.252-1.481,2.985-2.607c1.63-2.387,1.453-5.61,0.285-8.151c-1.35-3.092-3.835-5.503-6.451-7.549 c-3.041-2.457-5.33-6.171-5.199-10.183c-0.145-4.587,2.111-8.768,4.494-12.529C600.987,700.682,599.894,701.906,598.6,702.835 M526.96,792.287c-3.947,0.906-7.6,2.807-10.982,4.994c-7.002,4.611-12.781,11.576-14.682,19.867 c-1.107,4.307-0.565,8.777-0.752,13.169c-0.22,5.919-0.603,11.865-1.808,17.676c5.297-1.864,11.164-1.897,16.508-0.206 c7.614,2.761,16.018,0.668,23.1-2.667c1.658-12.145,5.344-24.282,12.342-34.456c4.653-6.731,11.305-12.29,19.246-14.612 c-0.336-0.154-1.009-0.458-1.345-0.612c-11.889,4.606-22.142,12.753-30.34,22.418c-2.121,2.312-3.718,5.05-5.82,7.362 c0.243-1.584,1.532-2.695,2.378-3.98c7.698-10.057,17.424-18.774,28.887-24.31c1.401-0.752,3.05-1.056,4.279-2.107 c-1.257-0.023-2.471,0.276-3.686,0.528c-10.197,1.817-20.33,5.082-28.948,10.954c-2.261,1.401-4.059,3.396-6.194,4.952 c0.57-1.574,2.144-2.429,3.312-3.522c9.665-7.624,21.778-11.281,33.75-13.351c-1.943-0.523-3.919-1.616-5.975-1.004 c-12.514,1.621-24.852,5.19-35.974,11.22c-2.747,1.392-5.213,3.251-7.871,4.788c0.542-1.285,1.915-1.798,2.976-2.565 c12.211-7.684,26.281-12.15,40.552-13.939c-0.607-0.505-1.378-0.551-2.097-0.696C547.626,790.409,537.153,790.68,526.96,792.287 M954.345,791.432c-6.012,1.289-11.576,4.209-17.7,5.054c-3.915,0.747-7.899,0.397-11.842,0.378 c3.765,1.883,7.913,3.578,10.534,7.082c2.663,3.275,3.181,7.834,2.097,11.828c-0.878,2.999-1.462,6.161-0.925,9.287 c0.425,2.775,1.929,5.592,4.569,6.825c2.242,1.158,4.816,0.434,7.217,0.444c10.258-0.472,20.806,1.658,29.607,7.1 c7.399,4.531,13.617,11.122,17.363,18.975c-0.495,0.448-1.032,0.859-1.537,1.294c0.238,0.229,0.705,0.682,0.944,0.911l-1.004,0.117 c0.229,0.248,0.691,0.743,0.92,0.995c-1.668-0.476-2.537-2.303-4.246-2.733c-4.33-1.331-8.969-1.397-13.411-0.654 c-9.067,1.644-17.41,5.984-24.945,11.146c-1.528,0.962-2.812,2.294-4.466,3.046c0.514-1.023,1.504-1.616,2.392-2.27 c4.055-2.943,8.338-5.592,12.851-7.768c8.175-3.952,17.56-6.573,26.608-4.377c-4.877-3.163-10.655-4.634-16.368-5.344 c-11.407-1.224-22.899,0.612-33.895,3.63c0.103-0.159,0.308-0.486,0.411-0.649c5.138-1.49,10.398-2.569,15.71-3.251 c10.169-1.196,20.928-1.177,30.471,2.99c2.887,1.144,5.223,3.284,8.095,4.466c-5.69-6.773-12.968-12.454-21.329-15.523 c-9.838-3.63-21.18-2.859-30.41,2.125c0.164-0.902,1.093-1.149,1.798-1.513c8.614-4.022,18.769-4.541,27.776-1.509 c8.24,2.667,15.224,8.119,21.185,14.257c-6.759-12.711-20.068-21.427-34.306-23.104c-6.325-0.677-12.982-1.074-19.036,1.238 c-5.783,2.041-11.16,5.423-15.21,10.062c-3.788,4.372-6.474,9.786-7.269,15.546c-0.528,3.868-0.196,7.787,0.238,11.65 c0.654,5.746,1.14,11.683-0.35,17.345c5.862-3.831,13.696-5.026,20.124-1.873c6.115,3.251,13.481,3.597,20.091,1.77 c3.947-1.107,7.918-3.05,10.384-6.451c1.425-1.836,1.448-4.288,2.588-6.269c2.569-4.858,6.904-8.53,11.557-11.314 c4.555-2.607,9.88-4.69,15.21-3.69c2.032,0.28,3.606,1.85,5.62,2.158c5.124,0.248,10.193,1.654,14.752,4.003 c6.932,3.461,12.286,9.642,15.289,16.733c1.313,3.27,2.536,6.694,2.625,10.254c-0.803-0.771-0.663-1.976-0.925-2.952 c-1.532-7.133-5.073-13.944-10.515-18.872c-5.694-5.26-13.337-7.983-20.97-8.665c4.709,3.233,9.044,7.217,11.758,12.318 c2.387,4.321,3.466,9.315,3.181,14.243c-0.238,8.45,1.799,17.802,8.478,23.539c4.148,3.373,9.487,4.606,14.369,6.531 c3.704,1.448,7.717,2.943,10.216,6.218c1.046-2.943,3.13-5.372,5.662-7.152c3.882-3.648,6.615-8.385,8.595-13.29 c2.882-7.156,3.34-15.546-0.042-22.614c-2.139-4.76-5.895-8.488-9.707-11.931c-8.334-7.409-17.966-13.888-28.948-16.485 c-6.666-1.593-13.836-1.196-20.166,1.49c-0.565,0.397-1.616,0.332-1.742-0.435c-0.378-0.729,0.645-1.051,1.014-1.462 c-0.271-1.789,1.383-2.99,1.883-4.564c0.177-0.691,0.603-1.201,1.275-1.523c-0.355-0.187-0.701-0.36-1.028-0.523 c1.869-5.755,6.376-10.043,10.786-13.949c2.644-2.154,5.251-4.419,8.235-6.096c-0.196,0.495-0.509,0.897-0.939,1.196 c-4.199,2.929-8.193,6.175-11.72,9.894c-2.256,2.326-4.171,4.998-5.456,7.983c0.14,0.364,0.29,0.738,0.458,1.121 c1.64-2.677,3.877-4.924,6.063-7.156c7.124-7.012,15.551-12.599,24.426-17.144c0.892-0.659,1.42-1.691,2.032-2.593 c1.462-2.466,2.835-5.232,2.593-8.175c-0.131-2.009-1.5-3.737-3.2-4.699c-2.999-1.77-6.545-2.023-9.908-2.527 c-6.124-1.042-12.426-2.35-17.742-5.727c-2.125-1.172-3.046-3.592-5.054-4.882c-2.536-1.883-5.975-2.406-8.932-1.275 c-4.639,1.546-9.403,5.059-9.903,10.286c-0.472,2.658,1.486,4.769,2.195,7.185c2.28,10.127,5.157,20.218,5.909,30.625 c0.084,1.523,0.159,3.092-0.22,4.597c-0.444,0.743-1.602-0.318-1.822,0.663c0.07,0.453,0.215,1.355,0.285,1.808 c-0.775-0.57-0.729-1.579-0.976-2.387c-2.41-10.333-6.045-20.745-13-28.944c-3.391-3.919-7.666-7.32-12.753-8.656 c0.037-0.145,0.112-0.43,0.154-0.575c6.806,1.855,12.117,7.058,16.004,12.743c4.9,7.362,8.044,15.822,9.847,24.45 c0.164,0.009,0.495,0.033,0.663,0.042c-0.028-8.946-2.177-17.695-4.181-26.356c-0.78-2.747-1.112-5.666-2.513-8.194 c-0.738-1.383-0.962-2.957-1.663-4.34c-3.929-6.778-10.207-12.094-17.429-15.093C964.94,791.46,959.544,790.32,954.345,791.432 M596.797,791.871c-4.26,0.766-8.679,1.78-12.206,4.424c-2.214,2.041-3.139,5.078-4.125,7.843 c-1.186,6.269-1.588,12.86-0.033,19.106c0.659,2.111,1.649,4.629,3.971,5.344c5.213,1.439,10.445,2.826,15.649,4.316 c7.67,2.275,15.439,4.358,22.787,7.572c-2.943-3.933-6.157-7.834-7.792-12.538c-0.621-1.887-0.958-4.195,0.341-5.877 c1.471-1.663,3.844-1.99,5.933-2.228c5.961-0.383,11.907,0.542,17.723,1.752c-4.858-2.728-8.123-7.376-11.286-11.818 c-4.484-6.316-9.927-12.015-16.364-16.354C606.854,791.436,601.65,790.876,596.797,791.871 M633.854,814.499 c1.448,1.939,3.223,3.732,5.391,4.867C638.101,817.152,635.994,815.648,633.854,814.499 M1040.228,827.298 c-10.17,5.162-19.69,11.837-27.351,20.339c13.888-7.633,29.485-12.856,45.443-12.94c-0.052,0.14-0.15,0.416-0.196,0.556 c-5.984-0.093-11.926,0.892-17.737,2.219c-9.833,2.28-19.241,6.171-28.028,11.099c-1.247,0.976-2.009,2.429-2.971,3.658 c10.982-5.531,23.137-9.609,35.577-9.048c1.401,0.262,3.139-0.107,4.265,0.976c-1.742-0.014-3.443-0.495-5.176-0.472 c-11.347-0.252-22.46,3.247-32.578,8.165c-1.093,0.556-2.373,0.883-3.153,1.897c13.897-3.499,28.663-2.368,42.304,1.747 c1.425,0.519,3.064,0.729,4.209,1.826c-2.027-0.304-3.886-1.247-5.863-1.719c-12.178-3.41-25.169-4.611-37.614-1.957 c-1.532,0.425-3.518,0.318-4.209,2.069c3.326-1.032,6.764-1.817,10.268-1.822c8.633-0.201,16.985,2.868,24.398,7.086 c7.399,4.293,14.098,9.758,19.97,15.971c6.143-1.252,12.3-3.503,17.036-7.736c2.009-1.752,3.27-4.153,5.134-6.035 c3.111-3.354,7.124-5.872,11.524-7.147c-6.278-5.853-11.529-12.683-16.509-19.634c-3.345-4.288-7.941-7.54-13.066-9.338 C1057.67,824.182,1048.407,824.285,1040.228,827.298 M813.794,854.57c-0.883,1.668-1.28,3.522-1.808,5.321 c-2.116,7.404-3.433,15.037-3.915,22.721c-1.481,22.922,4.97,45.77,15.742,65.861c8.759,16.415,20.194,31.284,32.975,44.751 c6.101,6.516,12.809,12.416,19.068,18.779c12.687,12.715,24.501,26.286,35.479,40.5c0.906-4.489,2.046-8.922,3.242-13.337 c-11.267-14.603-23.595-28.36-36.506-41.514c-6.624-6.918-13.738-13.355-20.04-20.577c-25.225-28.406-40.762-65.114-43.99-102.942 C813.556,867.626,813.173,861.077,813.794,854.57 M982.373,868.471c-3.742,1.766-6.844,4.685-9.287,7.988 c-1.243,1.546-1.584,3.531-2.107,5.391c-2.088,6.881-2.541,14.135-2.424,21.287c-0.028,4.601-0.056,9.483-2.294,13.645 c2.882-2.667,5.456-5.676,8.535-8.142c2.831-2.28,5.839-4.741,9.534-5.344c2.364-0.336,4.176,1.808,4.891,3.84 c1.756,4.989,1.462,10.384,1.289,15.588c7.128-11.505,16.009-21.787,24.347-32.405c1.056-1.518,0.803-3.485,0.346-5.162 c-1.243-4.181-3.779-7.839-6.465-11.216c-2.219-2.607-4.414-5.367-7.432-7.077c-2.079-1.201-4.288-2.672-6.806-2.387 C990.198,864.786,986.175,866.551,982.373,868.471 M733.541,894.855c2.611,22.763,8.894,45.069,18.302,65.954 c2.013,4.363,4.008,8.782,6.675,12.795c-0.645-1.201-1.317-2.378-1.854-3.611c-10.333-21.941-15.883-46.008-17.191-70.177 C737.922,897.821,735.484,896.513,733.541,894.855 M964.673,915.021c1.654-1.766,1.509-4.564,1.724-6.839 C965.285,910.284,964.701,912.643,964.673,915.021 M760.419,917.889c3.321,31.985,14.22,62.899,29.962,90.839 c1.999,3.419,3.868,6.937,6.152,10.183c12.071,13.472,24.249,26.846,36.525,40.127c5.61,5.961,11.043,12.108,16.849,17.873 c-5.662-21.815-12.575-43.373-21.726-63.997c-7.703-17.004-16.639-33.498-27.341-48.815c-6.068-8.46-12.585-16.597-19.47-24.408 C774.672,932.16,767.8,924.761,760.419,917.889 M1118.832,931.716c1.06,1.78,0.504,3.994,0.93,5.975 c2.065,24.581-0.771,49.362-6.26,73.34c-9.03,38.8-25.417,75.568-45.55,109.823c-4.167,7.236-8.749,14.219-13.126,21.315 c14.78-16.317,28.061-34.026,39.375-52.922c9.642-16.167,17.821-33.269,23.543-51.221c3.667-11.501,5.975-23.417,7.072-35.432 c2.116-22.483,0.023-45.195-4.676-67.23C1119.766,934.169,1119.864,932.548,1118.832,931.716 M821.969,979.07 c0.481,1.56,1.411,2.924,2.149,4.377c17.802,34.087,31.793,70.303,40.061,107.908c0.201,1.042,1.112,1.705,1.799,2.457 c5.124,5.152,10.431,10.141,15.093,15.733c10.898,12.926,19.83,27.379,27.855,42.224c0.733,1.238,1.154,2.714,2.28,3.7 c-2.107-15.378-3.644-30.849-4.185-46.363c-0.341-11.193-0.374-22.418,0.645-33.578c-4.298-5.643-8.782-11.136-13.383-16.532 c-10.735-12.571-22.362-24.328-33.68-36.366c-12.295-12.972-24.599-25.982-35.624-40.071 C824.001,981.368,823.249,979.967,821.969,979.07 M926.56,1055.997c-0.976,4.62-1.84,9.268-2.667,13.921 c12.711,18.526,23.824,38.16,33.101,58.63c7.647,16.938,14.112,34.437,18.751,52.445c0.621,2.7,1.7,5.335,1.766,8.137 c0.575,0.589,0.514,1.467,0.696,2.247c0.5,2.658,1,5.325,1.537,7.988c-0.168-2.387-0.757-4.713-1.201-7.044 c-0.448-1.841-0.397-3.765-1.135-5.517c-5.536-26.729-12.683-53.234-23.072-78.52C946.82,1090,937.589,1072.403,926.56,1055.997 M920.609,1093.653c-0.831,8.698-1.476,17.424-1.588,26.169c-0.369,12.346,0.579,24.693,2.079,36.941 c1.64,12.907,3.966,25.739,7.17,38.356c4.825,18.97,11.225,37.506,18.4,55.71c6.502,16.364,13.626,32.48,21.418,48.269 c2.238,4.4,4.298,8.927,7.054,13.038c2.139-12.884,2.896-25.968,2.952-39.02c0.145-50.011-12.057-100.279-36.735-143.9 C935.412,1116.837,928.471,1104.911,920.609,1093.653 M866.421,1102.393c2.252,12.57,3.882,25.262,4.569,38.02 c0.434,11.127,1.042,22.301,2.929,33.283c6.937,11.889,15.341,23.081,25.818,32.097c7.782,6.671,15.869,13.066,22.651,20.806 c2.653,2.733,4.769,5.951,7.465,8.642c-5.554-17.004-10.216-34.306-13.771-51.838c-0.831-3.237-0.864-6.722-2.49-9.702 c-8.936-18.952-19.073-37.459-31.751-54.192C877.147,1113.427,872.148,1107.522,866.421,1102.393 M856.177,1104.668 c-0.439,15.415,1.901,30.92,6.881,45.517c0.476,1.341,0.743,2.812,1.686,3.952c-0.448-4.26-1.07-8.502-1.49-12.762 c-1.551-10.964-3.672-21.839-5.881-32.685C857.032,1107.326,857.051,1105.822,856.177,1104.668 M847.372,1129.183 c-1.434,22.18,1.911,45.2,12.743,64.852c4.41,7.839,9.712,15.215,15.887,21.759c-1.434-5.624-2.639-11.305-3.816-16.98 c-0.29-1.537-1.439-2.681-2.163-4.003c-9.983-16.069-17.368-33.862-20.801-52.506 C848.315,1137.97,848.068,1133.541,847.372,1129.183 M755.491,1182.53c1.887,11.921,7.227,23.062,14.229,32.812 c9.389,13.066,21.493,23.973,34.544,33.283c16.093,11.403,33.792,20.437,52.202,27.467c7.778,2.836,15.551,5.722,23.048,9.263 c9.24,4.199,18.106,9.188,26.739,14.519c-0.392-0.855-0.593-1.906-1.481-2.373c-9.1-6.073-18.55-11.613-28.229-16.714 c-8.292-4.512-16.966-8.25-25.356-12.566c-7.885-4.092-15.532-8.633-22.927-13.556 C799.719,1235.535,774.905,1210.866,755.491,1182.53 M881.514,1211.361c1.121,4.339,2.303,8.665,3.522,12.981 c0.21,1.121,1.266,1.724,2.027,2.481c10.249,9.053,21.605,16.84,33.657,23.287c-0.818-0.897-1.77-1.64-2.728-2.345 C904.521,1237.044,892.296,1224.777,881.514,1211.361 M894.043,1252.782c1.079,3.844,2.607,7.549,3.924,11.319 c3.088,8.179,6.049,16.443,9.637,24.408c13.089,11.393,26.968,21.932,39.291,34.194c11.996,11.898,22.946,24.828,32.989,38.408 c10.576,14.36,20.222,29.411,28.766,45.064c0.668,1.084,0.99,2.513,2.2,3.172c-3.391-11.197-7.367-22.217-11.599-33.115 c-7.381-18.723-15.939-37.048-26.585-54.15c-4.737-7.432-9.768-14.673-14.103-22.348c-1.551-2.354-2.443-5.199-4.629-7.077 c-6.063-5.68-12.426-11.118-19.503-15.504c-3.816-2.424-8.039-4.064-12.024-6.157 C912.322,1265.974,902.932,1259.677,894.043,1252.782 M914.195,1304.096c0.299,0.747,0.612,1.588,1.373,2.037 c5.783,4.003,11.23,8.469,16.775,12.799C926.71,1313.504,920.487,1308.726,914.195,1304.096 M924.411,1326.285 c7.203,15.07,15.023,29.868,23.744,44.125c4.101,6.811,8.871,13.173,13.566,19.577c1.056,1.476,2.803,2.186,4.246,3.228 c19.022,12.767,35.81,28.794,49.787,46.933c2.079,2.546,3.751,5.405,5.919,7.885c-0.733-3.373-1.378-6.829-2.985-9.908 c-2.588-5.517-5.129-11.052-7.703-16.569c-1.798-3.644-3.167-7.516-5.484-10.875c-16.588-26.038-35.946-50.777-60.26-70.065 C938.603,1335.427,931.75,1330.438,924.411,1326.285 M1166.409,1341.612c-9.174,2.99-18.9,3.849-28.495,3.751 c-5.288-0.019-10.552-0.654-15.836-0.388c-24.132,0.916-47.563,11.066-65.525,27.056c-3.153,2.938-6.353,5.937-8.759,9.53 c5.62-5.227,11.702-9.978,18.204-14.075c15.453-9.814,33.386-16.466,51.856-16.452c5.479-0.089,10.903,0.794,16.312,1.56 c10.441,1.201,21.451,1.13,31.275-3.05c7.231-3.06,13.724-8.899,15.981-16.597 C1177.336,1337.165,1171.912,1339.771,1166.409,1341.612 M849.759,1379.09c-5.736,1.612-11.239,3.919-16.793,6.054 c-9.38,3.625-18.774,7.226-28.205,10.711c-18.4,6.745-36.936,13.257-55.981,17.952c-11.753,2.789-23.805,5.138-35.937,4.354 c-3.957-0.383-8.021-0.962-11.571-2.845c0.009,0.135,0.028,0.411,0.037,0.547c4.293,3.102,9.217,5.255,14.299,6.694 c10.305,2.91,21.18,3.172,31.784,2.144c19.568-1.92,38.277-8.492,56.341-15.957c9.782-3.961,19.47-8.165,29.196-12.267 c17.102-7.175,34.643-14.187,53.263-16.004c13.411-1.392,26.991,0.051,40.061,3.209c9.118,2.111,17.957,5.246,26.734,8.437 c-2.906-1.887-6.133-3.195-9.249-4.681c-10.525-4.685-21.572-8.203-32.872-10.45C890.708,1372.952,869.537,1373.26,849.759,1379.09 M986.96,1422.51c0.836,1.761,2.303,3.102,3.461,4.653c7.413,9.048,14.859,18.106,23.203,26.328 c2.401,2.326,4.821,4.713,7.754,6.381c-2.887-4.942-6.493-9.441-10.043-13.916c-6.414-7.853-13.594-15.088-21.455-21.488 C988.974,1423.706,988.086,1422.893,986.96,1422.51z"/>
    <path fill="#F0C8A3" stroke="#F4F4F4" stroke-width="0.0438" d="M891.572,679.74c5.531-1.336,11.286-2.504,16.91-2.681 c-6.526,0.504-12.898,2.177-19.152,4.045c-15.261,4.741-29.509,12.351-42.659,21.353c-23.534,16.219-43.49,37.146-60.611,59.919 c-7.652,10.296-14.986,20.862-21.259,32.059c-14.743,26.188-23.917,55.692-25.272,85.78c-2.396-1.64-4.797-3.275-7.143-4.98 c0.028-15.869,1.929-31.774,6.255-47.064c4.433-15.855,11.323-30.999,20.213-44.849c6.096-9.45,13.052-18.321,20.241-26.954 c19.251-22.908,41.855-43.285,67.874-58.237C860.956,690.111,875.927,683.706,891.572,679.74z"/>
    <path fill="#F0C8A3" stroke="#F4F4F4" stroke-width="0.0438" d="M598.6,702.835c1.294-0.93,2.387-2.154,3.859-2.812 c-2.382,3.76-4.639,7.941-4.494,12.529c-0.131,4.013,2.158,7.726,5.199,10.183c2.616,2.046,5.101,4.456,6.451,7.549 c1.168,2.541,1.345,5.764-0.285,8.151c-0.733,1.126-1.85,1.925-2.985,2.607c-7.231,4.354-13.692,10.151-18.27,17.284 c-6.007,9.301-8.605,20.806-6.937,31.77c-0.051,1.084,1.018,1.28,1.859,1.392l0.271,0.224l-0.262,0.766 c0.182,0.005,0.542,0.014,0.724,0.019c0.093,0.234,0.276,0.705,0.369,0.944c0.533-1.593,0.547-3.405,1.616-4.765 c4.195-5.564,10.609-8.955,17.158-10.954c7.768-2.359,15.948-3.153,24.043-2.924c0.458,0.047,0.869-0.079,1.243-0.369 c-3.06-0.565-6.161-0.07-9.235-0.079c-8.329,0.589-16.784,2.154-24.221,6.105c-3.078,1.672-5.975,3.774-8.231,6.474 c-0.425,0.135-0.836,0.285-1.238,0.453c-0.388,1.065-0.547,2.859-1.7,3.237c-0.042-0.36-0.117-1.084-0.159-1.443 c-0.14-0.079-0.425-0.248-0.565-0.332c-0.846-8.38,0.462-17.027,4.172-24.623c4.008-8.413,10.735-15.308,18.494-20.362 c1.911-1.345,4.008-2.406,6.236-3.106c8.338-2.906,17.816-2.99,25.907,0.761c4.167,1.896,7.923,4.741,10.739,8.362 c4.33,5.512,6.83,12.248,11.459,17.55c1.154,1.378,2.462,2.616,3.812,3.802c-5.643,0.322-11.361,2.569-15.079,6.942 c-1.995,2.149-2.948,4.998-4.755,7.283c-4.008,5.162-9.913,8.792-16.247,10.3c-3.742,0.855-8.095,0.883-11.277-1.551 c-4.872-4.171-11.678-4.956-17.854-4.685c-5.797,0.439-12.155,1.826-16.149,6.395c-1.509,1.486-1.593,4.111-3.7,4.994 c0.29,0.21,0.575,0.43,0.888,0.663c-4.069,9.231-3.611,20.89,2.747,29.014c4.615,5.886,8.315,13.028,8.156,20.689 c-0.042,3.49-1.201,6.89-3.032,9.843c-2.593,4.354-5.853,8.292-8.189,12.799c-1.014,1.934-1.714,4.045-1.794,6.246 c-2.144-1.243-4.484-2.266-6.998-2.331c-3.555,0.028-6.97-1.14-10.221-2.462c-6.68-2.84-12.856-7.413-16.569-13.748 c-3.022-5.124-4.013-11.281-3.205-17.139c1.159-7.974,3.289-15.836,6.573-23.202c2.826-6.255,6.601-12.197,11.781-16.761 c3.592-3.195,7.909-5.592,12.552-6.848c0.845-0.308,1.887-0.336,2.485-1.102c0.028-1.056-0.995-1.331-1.826-1.13 c-1.009-1.775-3.373-1.784-4.849-3.018c-0.313-0.019-0.944-0.056-1.257-0.075c0.117-0.28,0.35-0.841,0.467-1.121 c-3.176-2.13-6.82-3.433-10.581-4.078c-5.307-0.972-10.716-1.144-16.097-1.102c-0.009,0.154-0.023,0.472-0.033,0.631 c7.283-0.14,14.752,0.145,21.698,2.555c1.682,0.472,3.013,1.724,4.671,2.228c-0.224,0.229-0.444,0.472-0.654,0.724 c-4.952-1.789-10.24-2.499-15.467-2.887c-7.96-0.649-15.962,0.023-23.842,1.149c-2.896-0.757-5.713-2.051-7.988-4.008 c-1.733-1.481-2.99-3.812-2.392-6.129c0.916-3.756,3.947-6.414,6.633-8.974c3.672-3.686,7.217-7.577,9.842-12.094 c1.191-2.163,2.331-4.498,2.27-7.021c-0.019-3.952,2.42-7.876,6.175-9.263c4.022-1.462,8.81-1.892,12.641,0.346 c1.967,1.224,3.77,3.181,3.971,5.596c0.322,2.055,0.813,4.111,1.859,5.937c3.177,7.834,6.381,15.691,10.487,23.095 c1.257,2.116,2.48,4.326,4.27,6.054c0.659,0.747,1.364-0.388,1.644-0.906c-2.779-3.097-4.681-6.844-6.563-10.52 c-3.177-6.47-5.989-13.122-8.535-19.862c-0.369-2.065-0.846-4.101-1.542-6.077c-0.986-7.666,0.897-15.574,4.76-22.231 c2.289-3.938,5.213-7.652,9.128-10.085c3.863-2.438,8.385-3.405,12.678-4.793C590.065,708.025,594.625,705.853,598.6,702.835 M582.703,738.412c-6.232,14.262-9.464,30.504-5.704,45.863c0.187-0.304,0.308-0.617,0.364-0.948 c-1.154-5.265-1.766-10.707-1.327-16.088c0.617-9.871,3.2-19.578,7.208-28.598c0.313-0.92,1.107-1.738,1.028-2.742 C583.329,736.366,583.194,737.576,582.703,738.412 M572.87,738.875c-3.317,5.358-4.204,11.851-3.989,18.05 c0.448,9.716,3.447,19.162,7.539,27.925l0.715-0.154c0.192,0.364,0.402,0.733,0.617,1.107c0-0.378-0.005-1.135-0.005-1.513 c-0.271,0.033-0.803,0.098-1.07,0.131c-2.859-6.914-5.498-13.981-6.619-21.409c-0.528-3.873-1.023-7.81-0.453-11.706 c0.439-5.171,2.079-10.347,5.381-14.416C573.889,736.955,573.445,738.113,572.87,738.875 M593.429,738.884 c-8.025,8.941-14.084,20.035-15.588,32.069c-0.589,3.849-0.248,7.74-0.023,11.608c0.182,0.005,0.547,0.023,0.729,0.033 c-1.439-9.338,0.533-18.956,4.601-27.407c3.111-6.643,7.521-12.585,12.5-17.933C594.634,737.3,594.073,738.235,593.429,738.884 M601.211,756.009c-9.025,6.035-14.719,16.055-17.018,26.51c-0.304,1.85-1.079,3.784-0.668,5.648 c0.061-0.028,0.187-0.089,0.248-0.121c1.168-8.464,4.027-16.878,9.338-23.665c5.321-6.867,13.122-11.772,21.638-13.523 c0.902-0.248,2.004-0.117,2.691-0.888C611.6,750.347,606.065,752.847,601.211,756.009 M602.617,767.613 c-6.745,4.671-12.954,10.534-16.565,18.013c-0.528,0.341-0.224,0.953,0.075,1.289c2.807-6.591,7.857-11.954,13.425-16.331 c7.544-5.867,16.154-10.254,25.099-13.556c0.43-0.126,0.696-0.416,0.799-0.855C617.388,758.961,609.662,762.787,602.617,767.613 M555.432,762.554c0.327,1.383,1.144,2.569,1.803,3.816c2.565,4.634,5.232,9.245,8.488,13.439c1.215,1.392,2.34,3.106,4.181,3.704 c-5.227-5.003-8.801-11.384-12.286-17.653C556.936,764.726,556.539,763.352,555.432,762.554 M541.549,770.159 c-0.019,0.145-0.047,0.43-0.065,0.575c8.39,1.504,16.92,4.555,23.058,10.693c1.098,0.967,1.714,2.476,3.083,3.125 c-0.972-2.037-2.709-3.569-4.33-5.082C557.189,774.255,549.355,771.546,541.549,770.159 M537.985,777.151 c0.103,0.135,0.304,0.411,0.406,0.551c5.783,0.425,11.59,1.392,17.004,3.545c2.924,1.224,5.816,2.742,8.016,5.073 c0.495,0.458,0.916,1.173,1.696,1.182c-2.308-3.284-5.937-5.353-9.586-6.825C549.939,778.492,543.95,777.455,537.985,777.151 M540.97,779.987c0.327,0.925,1.42,0.995,2.205,1.359c7.128,2.466,14.159,5.232,21.343,7.521c-0.598-0.874-1.658-1.06-2.565-1.411 C554.942,785.009,548,782.369,540.97,779.987 M578.144,783.715c0.252,1.07,0.308,2.261,0.976,3.195 c0.121-1.434-0.444-2.826-0.355-4.256C578.551,782.995,578.34,783.35,578.144,783.715 M570.684,798.822 c-5.241,3.177-9.151,8.1-12.384,13.22c-3.971,6.456-7.077,13.449-9.31,20.689c0.649-0.145,0.822-0.752,1.004-1.299 c2.088-6.25,4.765-12.328,8.133-17.999c3.513-5.788,7.829-11.449,13.902-14.729c1.275-0.789,2.896-0.958,4.027-1.971 C574.089,796.804,572.398,797.976,570.684,798.822 M574.122,799.434c-5.54,2.976-9.604,8.072-12.515,13.547 c-4.33,8.236-6.615,17.401-7.824,26.585c-0.201,0.518-0.07,1.046,0.388,1.378c1.023-8.343,2.906-16.644,6.325-24.352 c2.864-6.39,6.965-12.613,13.136-16.219c1.369-0.892,3.064-1.215,4.284-2.326C576.547,798.163,575.313,798.808,574.122,799.434 M578.611,800.952c-3.971,3.83-7.614,8.147-9.763,13.285c-3.919,8.894-3.237,19.353,0.715,28.117 c0.462,0.888,0.733,2.037,1.766,2.466c-0.439-1.257-1.121-2.401-1.626-3.62c-2.607-6.194-3.569-13.126-2.424-19.764 c1.299-7.474,5.484-14.252,11.062-19.307C578.41,801.835,578.541,801.246,578.611,800.952z"/>
    <path stroke="#684529" stroke-width="0.0438" d="M582.703,738.412c0.49-0.836,0.626-2.046,1.57-2.513 c0.079,1.004-0.715,1.822-1.028,2.742c-4.008,9.02-6.591,18.727-7.208,28.598c-0.439,5.381,0.173,10.823,1.327,16.088 c-0.056,0.332-0.178,0.645-0.364,0.948C573.239,768.916,576.472,752.674,582.703,738.412z"/>
    <path stroke="#684529" stroke-width="0.0438" d="M572.87,738.875c0.575-0.761,1.018-1.92,2.116-1.985 c-3.303,4.069-4.942,9.245-5.381,14.416c-0.57,3.896-0.075,7.834,0.453,11.706c1.121,7.427,3.76,14.495,6.619,21.409 c0.266-0.033,0.799-0.098,1.07-0.131c0,0.378,0.005,1.135,0.005,1.513c-0.215-0.374-0.425-0.743-0.617-1.107l-0.715,0.154 c-4.092-8.763-7.091-18.209-7.539-27.925C568.666,750.726,569.554,744.233,572.87,738.875z"/>
    <path stroke="#684529" stroke-width="0.0438" d="M593.429,738.884c0.645-0.649,1.205-1.584,2.219-1.63 c-4.98,5.349-9.389,11.291-12.5,17.933c-4.069,8.45-6.04,18.069-4.601,27.407c-0.182-0.009-0.547-0.028-0.729-0.033 c-0.224-3.868-0.565-7.759,0.023-11.608C579.345,758.919,585.403,747.825,593.429,738.884z"/>
    <path stroke="#684529" stroke-width="0.0438" d="M601.211,756.009c4.854-3.162,10.389-5.662,16.228-6.04 c-0.687,0.771-1.789,0.64-2.691,0.888c-8.516,1.752-16.317,6.657-21.638,13.523c-5.311,6.787-8.17,15.201-9.338,23.665 c-0.061,0.033-0.187,0.093-0.248,0.121c-0.411-1.864,0.364-3.798,0.668-5.648C586.492,772.064,592.186,762.044,601.211,756.009z"/>
    <path stroke="#684529" stroke-width="0.0438" d="M602.617,767.613c7.044-4.826,14.771-8.651,22.833-11.44 c-0.103,0.439-0.369,0.729-0.799,0.855c-8.946,3.303-17.555,7.689-25.099,13.556c-5.568,4.377-10.618,9.74-13.425,16.331 c-0.299-0.336-0.603-0.948-0.075-1.289C589.664,778.146,595.872,772.284,602.617,767.613z"/>
    <path stroke="#684529" stroke-width="0.0438" d="M555.432,762.554c1.107,0.799,1.504,2.172,2.186,3.307 c3.485,6.269,7.058,12.65,12.286,17.653c-1.84-0.598-2.966-2.312-4.181-3.704c-3.256-4.195-5.923-8.805-8.488-13.439 C556.577,765.123,555.759,763.936,555.432,762.554z"/>
    <path stroke="#684529" stroke-width="0.0438" d="M541.549,770.159c7.806,1.387,15.64,4.097,21.745,9.31 c1.621,1.513,3.359,3.046,4.33,5.082c-1.369-0.649-1.985-2.158-3.083-3.125c-6.138-6.138-14.668-9.188-23.058-10.693 C541.502,770.588,541.53,770.303,541.549,770.159z"/>
    <path stroke="#684529" stroke-width="0.0438" d="M537.985,777.151c5.965,0.304,11.954,1.341,17.536,3.527 c3.648,1.471,7.278,3.541,9.586,6.825c-0.78-0.009-1.201-0.724-1.696-1.182c-2.2-2.331-5.092-3.849-8.016-5.073 c-5.414-2.153-11.221-3.12-17.004-3.545C538.288,777.563,538.088,777.287,537.985,777.151z"/>
    <path stroke="#684529" stroke-width="0.0438" d="M540.97,779.987c7.03,2.382,13.972,5.022,20.984,7.469 c0.906,0.35,1.967,0.537,2.565,1.411c-7.185-2.289-14.215-5.054-21.343-7.521C542.39,780.982,541.297,780.912,540.97,779.987z"/>
    <path stroke="#684529" stroke-width="0.0438" d="M578.144,783.715c0.196-0.364,0.406-0.719,0.621-1.06 c-0.089,1.429,0.477,2.821,0.355,4.256C578.453,785.976,578.396,784.784,578.144,783.715z"/>
    <path fill="#F0C8A3" stroke="#F4F4F4" stroke-width="0.0438" d="M526.96,792.287c10.193-1.607,20.666-1.878,30.854-0.098 c0.719,0.145,1.49,0.192,2.097,0.696c-14.271,1.789-28.341,6.255-40.552,13.939c-1.06,0.766-2.434,1.28-2.976,2.565 c2.658-1.537,5.124-3.396,7.871-4.788c11.122-6.031,23.459-9.6,35.974-11.22c2.055-0.612,4.031,0.481,5.975,1.004 c-11.973,2.069-24.085,5.727-33.75,13.351c-1.168,1.093-2.742,1.948-3.312,3.522c2.135-1.556,3.933-3.55,6.194-4.952 c8.619-5.872,18.751-9.137,28.948-10.954c1.215-0.252,2.429-0.551,3.686-0.528c-1.229,1.051-2.878,1.355-4.279,2.107 c-11.463,5.536-21.189,14.252-28.887,24.31c-0.846,1.285-2.135,2.396-2.378,3.98c2.102-2.312,3.7-5.05,5.82-7.362 c8.198-9.665,18.452-17.812,30.34-22.418c0.336,0.154,1.009,0.458,1.345,0.612c-7.941,2.322-14.593,7.88-19.246,14.612 c-6.998,10.174-10.683,22.31-12.342,34.456c-7.082,3.335-15.485,5.428-23.1,2.667c-5.344-1.691-11.211-1.658-16.508,0.206 c1.205-5.811,1.588-11.758,1.808-17.676c0.187-4.391-0.355-8.862,0.752-13.169c1.901-8.292,7.68-15.257,14.682-19.867 C519.36,795.094,523.013,793.193,526.96,792.287z"/>
    <path fill="#F0C8A3" stroke="#F4F4F4" stroke-width="0.0438" d="M954.345,791.432c5.199-1.112,10.595,0.028,15.406,2.111 c7.222,2.999,13.5,8.315,17.429,15.093c0.701,1.383,0.925,2.957,1.663,4.34c1.401,2.527,1.733,5.447,2.513,8.194 c2.004,8.661,4.153,17.41,4.181,26.356c-0.168-0.009-0.5-0.033-0.663-0.042c-1.803-8.628-4.947-17.088-9.847-24.45 c-3.887-5.685-9.198-10.889-16.004-12.743c-0.042,0.145-0.117,0.43-0.154,0.575c5.087,1.336,9.361,4.737,12.753,8.656 c6.956,8.198,10.59,18.611,13,28.944c0.248,0.808,0.201,1.817,0.976,2.387c-0.07-0.453-0.215-1.355-0.285-1.808 c0.22-0.981,1.378,0.079,1.822-0.663c0.378-1.504,0.304-3.074,0.22-4.597c-0.752-10.408-3.63-20.498-5.909-30.625 c-0.71-2.415-2.667-4.527-2.195-7.185c0.5-5.227,5.265-8.74,9.903-10.286c2.957-1.13,6.395-0.607,8.932,1.275 c2.009,1.289,2.929,3.709,5.054,4.882c5.316,3.377,11.617,4.685,17.742,5.727c3.363,0.505,6.909,0.757,9.908,2.527 c1.7,0.962,3.069,2.691,3.2,4.699c0.243,2.943-1.13,5.708-2.593,8.175c-0.612,0.902-1.14,1.934-2.032,2.593 c-8.875,4.545-17.303,10.132-24.426,17.144c-2.186,2.233-4.424,4.48-6.063,7.156c-0.168-0.383-0.318-0.757-0.458-1.121 c1.285-2.985,3.2-5.657,5.456-7.983c3.527-3.718,7.521-6.965,11.72-9.894c0.43-0.299,0.743-0.701,0.939-1.196 c-2.985,1.677-5.592,3.943-8.235,6.096c-4.41,3.905-8.918,8.193-10.786,13.949c0.327,0.163,0.673,0.336,1.028,0.523 c-0.673,0.322-1.098,0.832-1.275,1.523c-0.5,1.574-2.154,2.775-1.883,4.564c-0.369,0.411-1.392,0.733-1.014,1.462 c0.126,0.766,1.177,0.832,1.742,0.435c6.33-2.686,13.5-3.083,20.166-1.49c10.982,2.597,20.615,9.076,28.948,16.485 c3.812,3.443,7.568,7.17,9.707,11.931c3.382,7.068,2.924,15.457,0.042,22.614c-1.981,4.905-4.714,9.642-8.595,13.29 c-2.532,1.78-4.615,4.209-5.662,7.152c-2.499-3.275-6.512-4.769-10.216-6.218c-4.882-1.925-10.221-3.158-14.369-6.531 c-6.68-5.736-8.717-15.088-8.478-23.539c0.285-4.928-0.794-9.922-3.181-14.243c-2.714-5.101-7.049-9.086-11.758-12.318 c7.633,0.682,15.275,3.405,20.97,8.665c5.442,4.928,8.983,11.739,10.515,18.872c0.262,0.976,0.121,2.182,0.925,2.952 c-0.089-3.56-1.313-6.984-2.625-10.254c-3.004-7.091-8.357-13.271-15.289-16.733c-4.559-2.35-9.628-3.756-14.752-4.003 c-2.013-0.308-3.588-1.878-5.62-2.158c-5.33-1-10.655,1.084-15.21,3.69c-4.653,2.784-8.988,6.456-11.557,11.314 c-1.14,1.981-1.163,4.433-2.588,6.269c-2.466,3.401-6.437,5.344-10.384,6.451c-6.61,1.826-13.977,1.481-20.091-1.77 c-6.428-3.153-14.262-1.957-20.124,1.873c1.49-5.662,1.004-11.599,0.35-17.345c-0.435-3.863-0.766-7.782-0.238-11.65 c0.794-5.76,3.48-11.174,7.269-15.546c4.05-4.639,9.427-8.021,15.21-10.062c6.054-2.312,12.711-1.915,19.036-1.238 c14.238,1.677,27.547,10.394,34.306,23.104c-5.961-6.138-12.944-11.59-21.185-14.257c-9.006-3.032-19.162-2.513-27.776,1.509 c-0.705,0.364-1.635,0.612-1.798,1.513c9.231-4.984,20.573-5.755,30.41-2.125c8.362,3.069,15.64,8.749,21.329,15.523 c-2.873-1.182-5.208-3.321-8.095-4.466c-9.544-4.167-20.302-4.185-30.471-2.99c-5.311,0.682-10.571,1.761-15.71,3.251 c-0.103,0.164-0.308,0.49-0.411,0.649c10.996-3.018,22.488-4.854,33.895-3.63c5.713,0.71,11.491,2.182,16.368,5.344 c-9.048-2.195-18.433,0.425-26.608,4.377c-4.513,2.177-8.796,4.826-12.851,7.768c-0.888,0.654-1.878,1.247-2.392,2.27 c1.654-0.752,2.938-2.083,4.466-3.046c7.535-5.162,15.878-9.501,24.945-11.146c4.442-0.743,9.081-0.677,13.411,0.654 c1.71,0.43,2.579,2.256,4.246,2.733c-0.229-0.252-0.691-0.747-0.92-0.995l1.004-0.117c-0.238-0.229-0.705-0.682-0.944-0.911 c0.505-0.434,1.042-0.846,1.537-1.294c-3.746-7.853-9.964-14.444-17.363-18.975c-8.801-5.442-19.349-7.572-29.607-7.1 c-2.401-0.009-4.975,0.715-7.217-0.444c-2.639-1.233-4.143-4.05-4.569-6.825c-0.537-3.125,0.047-6.288,0.925-9.287 c1.084-3.994,0.565-8.553-2.097-11.828c-2.621-3.503-6.769-5.199-10.534-7.082c3.943,0.019,7.927,0.369,11.842-0.378 C942.769,795.641,948.333,792.721,954.345,791.432 M960.357,815.284c1.145,1.14,2.691,1.719,4.041,2.593 c12.645,7.708,23.847,18.55,29.784,32.312c-0.164,0.36-0.318,0.733-0.467,1.116c-3.471-8.17-9.997-14.757-17.405-19.494 c-7.301-4.545-15.523-7.792-24.053-9.016c0.42,0.771,1.373,0.687,2.111,0.897c7.554,1.518,14.855,4.372,21.399,8.451 c7.479,4.676,13.869,11.319,17.541,19.4c0.374,0.729,0.561,1.752,1.5,1.99c-0.243-0.575-0.551-1.158-0.836-1.672 c0.145-0.378,0.313-0.743,0.495-1.093l0.341,1.168c0.579-0.472,0.028-1.145-0.107-1.658c-5.517-13.743-16.658-24.454-28.976-32.26 C963.963,817.059,962.361,815.648,960.357,815.284 M1012.405,821.09c-5.115,6.054-9.385,13.309-10.039,21.362 c-0.019,0.803-0.378,1.817,0.364,2.438c0.173-9.128,4.821-17.499,10.767-24.169c0.729-0.888,1.705-1.607,2.153-2.695 C1014.283,818.694,1013.414,820.006,1012.405,821.09 M999.316,820.146c-0.037,2.742,0.607,5.442,0.831,8.18 c0.416,5.61,1.271,11.407-0.304,16.924c1.565-0.864,1.046-3.237,1.383-4.76c0.215-5.76-0.402-11.515-1.107-17.219 C999.914,822.206,1000.031,821.02,999.316,820.146 M1021.874,821.833c-4.372,3.634-8.427,7.722-11.557,12.491 c-2.186,3.438-4.158,7.334-4.022,11.515c1.018-1.378,0.593-3.307,1.336-4.83c2.747-7.698,8.679-13.734,14.813-18.9 C1022.304,822.038,1022.014,821.903,1021.874,821.833 M1019.421,828.485c-4.008,6.04-8.329,11.889-12.159,18.041 c1.28-0.49,1.714-1.939,2.532-2.924c3.938-5.956,8.268-11.683,11.949-17.793C1020.589,826.303,1020.131,827.546,1019.421,828.485 M1008.589,858.377c-1.187,0.145-2.686-0.014-3.499,1.037c5.087-1.079,10.38-0.49,15.327,0.995 c5.862,1.738,11.412,4.424,16.667,7.535c3.018,1.663,5.704,3.868,8.693,5.573c-0.49-1.074-1.579-1.612-2.476-2.261 c-2.994-2.06-6.082-3.98-9.277-5.69C1026.214,861.427,1017.604,857.821,1008.589,858.377 M1002.913,860.068 c0.916-0.252,2.051-0.28,2.658-1.149C1004.632,859.119,1003.352,859.021,1002.913,860.068 M1002.474,861.651 c0.033,0.15,0.103,0.444,0.135,0.593c6.797-2.191,14.168-0.518,20.465,2.438c7.904,3.789,14.827,9.366,20.951,15.588 c0.883,0.813,1.527,2.032,2.766,2.382c-1.261-1.971-3.107-3.457-4.713-5.12c-6.381-6.021-13.561-11.431-21.792-14.645 C1014.666,860.698,1008.318,859.867,1002.474,861.651z"/>
    <path fill="#F0C8A3" stroke="#F4F4F4" stroke-width="0.0438" d="M596.797,791.871c4.853-0.995,10.057-0.434,14.598,1.542 c6.437,4.34,11.879,10.039,16.364,16.354c3.162,4.442,6.428,9.09,11.286,11.818c-5.816-1.21-11.762-2.135-17.723-1.752 c-2.088,0.238-4.461,0.565-5.933,2.228c-1.299,1.682-0.962,3.989-0.341,5.877c1.635,4.704,4.849,8.605,7.792,12.538 c-7.348-3.214-15.116-5.297-22.787-7.572c-5.204-1.49-10.436-2.878-15.649-4.316c-2.322-0.715-3.312-3.233-3.971-5.344 c-1.556-6.246-1.154-12.837,0.033-19.106c0.986-2.765,1.911-5.802,4.125-7.843C588.117,793.651,592.536,792.637,596.797,791.871z"/>
    <path stroke="#684529" stroke-width="0.0438" d="M570.684,798.822c1.714-0.845,3.405-2.018,5.372-2.088 c-1.13,1.014-2.751,1.182-4.027,1.971c-6.073,3.279-10.389,8.941-13.902,14.729c-3.368,5.671-6.045,11.748-8.133,17.999 c-0.182,0.547-0.355,1.154-1.004,1.299c2.233-7.241,5.339-14.234,9.31-20.689C561.533,806.922,565.443,801.998,570.684,798.822z"/>
    <path stroke="#684529" stroke-width="0.0438" d="M574.122,799.434c1.191-0.626,2.424-1.271,3.793-1.387 c-1.219,1.112-2.915,1.434-4.284,2.326c-6.171,3.606-10.272,9.828-13.136,16.219c-3.419,7.708-5.302,16.009-6.325,24.352 c-0.458-0.332-0.589-0.859-0.388-1.378c1.21-9.184,3.494-18.349,7.824-26.585C564.518,807.506,568.582,802.409,574.122,799.434z"/>
    <path stroke="#684529" stroke-width="0.0438" d="M578.611,800.952c-0.07,0.294-0.201,0.883-0.271,1.177 c-5.578,5.054-9.763,11.832-11.062,19.307c-1.144,6.638-0.182,13.57,2.424,19.764c0.504,1.219,1.186,2.364,1.626,3.62 c-1.032-0.43-1.303-1.579-1.766-2.466c-3.952-8.763-4.634-19.223-0.715-28.117C570.997,809.099,574.641,804.782,578.611,800.952z"/>
    <path fill="#8C6239" stroke="#8C6239" stroke-width="0.0438" d="M633.854,814.499c2.139,1.149,4.246,2.653,5.391,4.867 C637.078,818.231,635.303,816.437,633.854,814.499z"/>
    <path stroke="#684529" stroke-width="0.0438" d="M960.357,815.284c2.004,0.364,3.606,1.775,5.367,2.733 c12.318,7.806,23.459,18.517,28.976,32.26c0.135,0.514,0.687,1.187,0.107,1.658l-0.341-1.168c-0.182,0.35-0.35,0.715-0.495,1.093 c0.285,0.514,0.593,1.098,0.836,1.672c-0.939-0.238-1.126-1.261-1.5-1.99c-3.672-8.081-10.062-14.724-17.541-19.4 c-6.545-4.078-13.846-6.932-21.399-8.451c-0.738-0.21-1.691-0.126-2.111-0.897c8.53,1.224,16.751,4.47,24.053,9.016 c7.409,4.737,13.935,11.323,17.405,19.494c0.15-0.383,0.304-0.757,0.467-1.116c-5.937-13.762-17.139-24.604-29.784-32.312 C963.048,817.003,961.502,816.423,960.357,815.284z"/>
    <path stroke="#684529" stroke-width="0.0438" d="M1012.405,821.09c1.009-1.084,1.878-2.396,3.247-3.064 c-0.448,1.088-1.425,1.808-2.153,2.695c-5.947,6.671-10.595,15.042-10.767,24.169c-0.743-0.621-0.383-1.635-0.364-2.438 C1003.02,834.399,1007.29,827.144,1012.405,821.09z"/>
    <path stroke="#684529" stroke-width="0.0438" d="M999.316,820.146c0.715,0.874,0.598,2.06,0.803,3.125 c0.705,5.704,1.322,11.459,1.107,17.219c-0.336,1.523,0.182,3.896-1.383,4.76c1.574-5.517,0.719-11.314,0.304-16.924 C999.923,825.589,999.279,822.888,999.316,820.146z"/>
    <path stroke="#684529" stroke-width="0.0438" d="M1021.874,821.833c0.14,0.07,0.43,0.206,0.57,0.276 c-6.133,5.167-12.066,11.202-14.813,18.9c-0.743,1.523-0.318,3.452-1.336,4.83c-0.135-4.181,1.836-8.077,4.022-11.515 C1013.447,829.555,1017.501,825.467,1021.874,821.833z"/>
    <path fill="#F0C8A3" stroke="#F4F4F4" stroke-width="0.0438" d="M1040.228,827.298c8.179-3.013,17.443-3.116,25.678-0.238 c5.125,1.798,9.721,5.05,13.066,9.338c4.98,6.951,10.23,13.78,16.509,19.634c-4.4,1.275-8.413,3.793-11.524,7.147 c-1.864,1.883-3.125,4.284-5.134,6.035c-4.737,4.232-10.894,6.484-17.036,7.736c-5.872-6.213-12.571-11.678-19.97-15.971 c-7.413-4.218-15.766-7.287-24.398-7.086c-3.503,0.005-6.942,0.789-10.268,1.822c0.691-1.752,2.677-1.644,4.209-2.069 c12.444-2.653,25.435-1.453,37.614,1.957c1.976,0.472,3.835,1.415,5.863,1.719c-1.145-1.098-2.784-1.308-4.209-1.826 c-13.64-4.115-28.406-5.246-42.304-1.747c0.78-1.014,2.06-1.341,3.153-1.897c10.118-4.919,21.231-8.418,32.578-8.165 c1.733-0.023,3.433,0.458,5.176,0.472c-1.126-1.084-2.864-0.715-4.265-0.976c-12.44-0.561-24.595,3.517-35.577,9.048 c0.962-1.229,1.724-2.681,2.971-3.658c8.787-4.928,18.195-8.819,28.028-11.099c5.811-1.327,11.753-2.312,17.737-2.219 c0.047-0.14,0.145-0.416,0.196-0.556c-15.957,0.084-31.555,5.307-45.443,12.94C1020.538,839.135,1030.058,832.46,1040.228,827.298z "/>
    <path stroke="#684529" stroke-width="0.0438" d="M1019.421,828.485c0.71-0.939,1.168-2.181,2.322-2.677 c-3.681,6.11-8.011,11.837-11.949,17.793c-0.817,0.986-1.252,2.434-2.532,2.924 C1011.092,840.373,1015.413,834.525,1019.421,828.485z"/>
    <path fill="#F0C8A3" stroke="#F4F4F4" stroke-width="0.0438" d="M813.794,854.57c-0.621,6.507-0.238,13.056,0.248,19.564 c3.228,37.828,18.765,74.536,43.99,102.942c6.302,7.222,13.416,13.659,20.04,20.577c12.912,13.154,25.239,26.911,36.506,41.514 c-1.196,4.414-2.336,8.848-3.242,13.337c-10.978-14.215-22.791-27.785-35.479-40.5c-6.26-6.362-12.968-12.262-19.068-18.779 c-12.781-13.467-24.216-28.336-32.975-44.751c-10.772-20.091-17.223-42.939-15.742-65.861c0.481-7.684,1.798-15.317,3.915-22.721 C812.514,858.092,812.911,856.237,813.794,854.57z"/>
    <path stroke="#684529" stroke-width="0.0438" d="M1008.589,858.377c9.016-0.556,17.625,3.05,25.435,7.189 c3.195,1.71,6.283,3.63,9.277,5.69c0.897,0.649,1.985,1.187,2.476,2.261c-2.99-1.705-5.676-3.91-8.693-5.573 c-5.255-3.111-10.805-5.797-16.667-7.535c-4.947-1.485-10.24-2.074-15.327-0.995 C1005.903,858.363,1007.402,858.521,1008.589,858.377z"/>
    <path stroke="#684529" stroke-width="0.0438" d="M1002.913,860.068c0.439-1.046,1.719-0.948,2.658-1.149 C1004.964,859.787,1003.828,859.815,1002.913,860.068z"/>
    <path stroke="#684529" stroke-width="0.0438" d="M1002.474,861.651c5.844-1.784,12.192-0.953,17.812,1.238 c8.231,3.214,15.411,8.623,21.792,14.645c1.607,1.663,3.452,3.148,4.713,5.12c-1.238-0.35-1.883-1.57-2.766-2.382 c-6.124-6.222-13.047-11.8-20.951-15.588c-6.297-2.957-13.668-4.629-20.465-2.438 C1002.577,862.095,1002.507,861.801,1002.474,861.651z"/>
    <path fill="#F0C8A3" stroke="#F4F4F4" stroke-width="0.0438" d="M982.373,868.471c3.802-1.92,7.824-3.686,12.127-3.994 c2.518-0.285,4.727,1.187,6.806,2.387c3.018,1.71,5.213,4.47,7.432,7.077c2.686,3.377,5.223,7.035,6.465,11.216 c0.458,1.677,0.71,3.644-0.346,5.162c-8.338,10.618-17.219,20.9-24.347,32.405c0.173-5.204,0.467-10.599-1.289-15.588 c-0.715-2.032-2.527-4.176-4.891-3.84c-3.695,0.603-6.703,3.064-9.534,5.344c-3.078,2.466-5.652,5.475-8.535,8.142 c2.238-4.162,2.266-9.044,2.294-13.645c-0.117-7.152,0.336-14.406,2.424-21.287c0.523-1.859,0.864-3.845,2.107-5.391 C975.53,873.157,978.631,870.237,982.373,868.471z"/>
    <path fill="#F0C8A3" stroke="#F4F4F4" stroke-width="0.0438" d="M733.541,894.855c1.943,1.658,4.382,2.966,5.933,4.961 c1.308,24.169,6.858,48.236,17.191,70.177c0.537,1.233,1.21,2.41,1.854,3.611c-2.667-4.013-4.662-8.432-6.675-12.795 C742.435,939.924,736.152,917.618,733.541,894.855z"/>
    <path fill="#8C6239" stroke="#8C6239" stroke-width="0.0438" d="M964.673,915.021c0.028-2.378,0.612-4.737,1.724-6.839 C966.182,910.457,966.327,913.255,964.673,915.021z"/>
    <path fill="#F0C8A3" stroke="#F4F4F4" stroke-width="0.0438" d="M1118.832,931.716c1.032,0.831,0.934,2.452,1.308,3.648 c4.699,22.035,6.792,44.747,4.676,67.23c-1.098,12.015-3.405,23.931-7.072,35.432c-5.722,17.952-13.902,35.054-23.543,51.221 c-11.314,18.896-24.595,36.605-39.375,52.922c4.377-7.096,8.96-14.079,13.126-21.315c20.133-34.255,36.521-71.023,45.55-109.823 c5.489-23.978,8.324-48.759,6.26-73.34C1119.336,935.71,1119.892,933.496,1118.832,931.716z"/>
    <path fill="#F0C8A3" stroke="#F4F4F4" stroke-width="0.0438" d="M926.56,1055.997c11.029,16.406,20.26,34.003,27.776,52.286 c10.389,25.286,17.536,51.791,23.072,78.52c0.738,1.752,0.687,3.676,1.135,5.517c0.444,2.331,1.032,4.657,1.201,7.044 c-0.537-2.663-1.037-5.33-1.537-7.988c-0.182-0.78-0.121-1.658-0.696-2.247c-0.065-2.803-1.144-5.437-1.766-8.137 c-4.639-18.008-11.104-35.507-18.751-52.445c-9.277-20.47-20.39-40.104-33.101-58.63 C924.72,1065.265,925.584,1060.617,926.56,1055.997z"/>
    <path fill="#F0C8A3" stroke="#F4F4F4" stroke-width="0.0438" d="M847.372,1129.183c0.696,4.358,0.944,8.787,1.85,13.122 c3.433,18.643,10.819,36.436,20.801,52.506c0.724,1.322,1.873,2.466,2.163,4.003c1.177,5.676,2.382,11.356,3.816,16.98 c-6.175-6.544-11.477-13.921-15.887-21.759C849.282,1174.383,845.938,1151.362,847.372,1129.183z"/>
    <path fill="#F0C8A3" stroke="#F4F4F4" stroke-width="0.0438" d="M755.491,1182.53c19.414,28.336,44.228,53.006,72.77,72.135 c7.395,4.924,15.042,9.464,22.927,13.556c8.39,4.316,17.064,8.053,25.356,12.566c9.679,5.101,19.129,10.641,28.229,16.714 c0.888,0.467,1.089,1.518,1.481,2.373c-8.633-5.33-17.499-10.319-26.739-14.519c-7.498-3.541-15.271-6.428-23.048-9.263 c-18.41-7.03-36.109-16.065-52.202-27.467c-13.052-9.31-25.155-20.218-34.544-33.283 C762.718,1205.592,757.378,1194.451,755.491,1182.53z"/>
    <path fill="#F0C8A3" stroke="#F4F4F4" stroke-width="0.0438" d="M881.514,1211.361c10.781,13.416,23.006,25.683,36.478,36.404 c0.958,0.705,1.911,1.448,2.728,2.345c-12.052-6.447-23.408-14.234-33.657-23.287c-0.761-0.757-1.817-1.359-2.027-2.481 C883.817,1220.026,882.635,1215.701,881.514,1211.361z"/>
    <path fill="#F0C8A3" stroke="#F4F4F4" stroke-width="0.0438" d="M914.195,1304.096c6.292,4.629,12.515,9.408,18.148,14.836 c-5.545-4.33-10.992-8.796-16.775-12.799C914.807,1305.684,914.494,1304.844,914.195,1304.096z"/>
    <path fill="#F0C8A3" stroke="#F4F4F4" stroke-width="0.0438" d="M1166.409,1341.612c5.503-1.841,10.926-4.447,15.014-8.665 c-2.256,7.698-8.749,13.537-15.981,16.597c-9.824,4.181-20.834,4.251-31.275,3.05c-5.409-0.766-10.833-1.649-16.312-1.56 c-18.47-0.014-36.404,6.638-51.856,16.452c-6.502,4.097-12.584,8.848-18.204,14.075c2.406-3.592,5.606-6.591,8.759-9.53 c17.961-15.99,41.393-26.141,65.525-27.056c5.283-0.266,10.548,0.369,15.836,0.388 C1147.509,1345.461,1157.235,1344.601,1166.409,1341.612z"/>
    <path fill="#F0C8A3" stroke="#F4F4F4" stroke-width="0.0438" d="M849.759,1379.09c19.778-5.83,40.949-6.138,61.106-2.102 c11.3,2.247,22.348,5.764,32.872,10.45c3.116,1.485,6.344,2.793,9.249,4.681c-8.777-3.191-17.616-6.325-26.734-8.437 c-13.07-3.158-26.65-4.601-40.061-3.209c-18.62,1.817-36.161,8.829-53.263,16.004c-9.726,4.101-19.414,8.305-29.196,12.267 c-18.064,7.465-36.773,14.037-56.341,15.957c-10.604,1.028-21.479,0.766-31.784-2.144c-5.082-1.439-10.006-3.592-14.299-6.694 c-0.009-0.135-0.028-0.411-0.037-0.547c3.55,1.883,7.614,2.462,11.571,2.845c12.131,0.785,24.183-1.565,35.937-4.354 c19.045-4.695,37.581-11.207,55.981-17.952c9.431-3.485,18.825-7.086,28.205-10.711 C838.519,1383.009,844.022,1380.701,849.759,1379.09z"/>
  </g>
</svg>