<?xml version="1.0" encoding="UTF-8" standalone="no"?>
<!--part of the rodentia icon theme by sixsixfive released under CC0 (https://creativecommons.org/publicdomain/zero/1.0/) on openclipart-->
<svg xmlns="http://www.w3.org/2000/svg" xmlns:xlink="http://www.w3.org/1999/xlink" viewBox="0 0 48 48">
 <defs id="0">
  <linearGradient id="A">
   <stop id="N" stop-color="#fff" stop-opacity="0.4"/>
   <stop id="O" offset="1" stop-color="#fff" stop-opacity="0"/>
  </linearGradient>
  <linearGradient id="B">
   <stop id="P" stop-color="#2e3436"/>
   <stop id="Q" offset="1" stop-color="#2e3436" stop-opacity="0"/>
  </linearGradient>
  <linearGradient id="C">
   <stop id="R" stop-color="#fff"/>
   <stop id="S" offset="1" stop-color="#fff" stop-opacity="0"/>
  </linearGradient>
  <linearGradient id="D">
   <stop id="T" stop-color="#fff" stop-opacity="0.8"/>
   <stop id="U" offset="1" stop-color="#fff" stop-opacity="0"/>
  </linearGradient>
  <linearGradient id="E">
   <stop id="V" stop-color="#3465a4"/>
   <stop id="W" offset="1" stop-color="#204a87"/>
  </linearGradient>
  <linearGradient id="F">
   <stop id="X" stop-color="#d3d7cf"/>
   <stop id="Y" offset="1" stop-color="#babdb6"/>
  </linearGradient>
  <radialGradient cx="24.708" cy="42.11" r="22.16" id="G" xlink:href="#B" gradientUnits="userSpaceOnUse" gradientTransform="matrix(1,0,0,0.09589041,0,38.073311)"/>
  <linearGradient y1="9.03" x2="0" y2="38.969" id="H" xlink:href="#F" gradientUnits="userSpaceOnUse"/>
  <linearGradient y1="13.531" x2="0" y2="34.469" id="I" xlink:href="#E" gradientUnits="userSpaceOnUse"/>
  <linearGradient y1="8.979" x2="0" y2="39.02" id="J" xlink:href="#D" gradientUnits="userSpaceOnUse"/>
  <linearGradient y1="34.427" x2="0" y2="13.573" id="K" xlink:href="#A" gradientUnits="userSpaceOnUse"/>
  <linearGradient x1="-0.174" y1="-40.07" x2="24" y2="31.659" id="L" xlink:href="#C" gradientUnits="userSpaceOnUse"/>
 </defs>
 <path d="m 46.866049,42.111389 a 22.158171,2.1247561 0 1 1 -44.3163416,0 22.158171,2.1247561 0 1 1 44.3163416,0 z" transform="matrix(1.0493151,0,0,-1.4518947,-1.9263496,100.27038)" id="1" opacity="0.8" fill="url(#G)"/>
 <path d="m 5.21875,7.9375 c -1.108,0 -2,0.892 -2,2 l 0,28.125 c 0,1.108 0.892,2 2,2 l 37.5625,0 c 1.108,0 2,-0.892 2,-2 l 0,-28.125 c 0,-1.108 -0.892,-2 -2,-2 l -37.5625,0 z" id="2" fill="#2e3436"/>
 <path d="m 5.21875,9.03125 c -0.5241331,0 -0.90625,0.3821169 -0.90625,0.90625 l 0,28.125 c 0,0.524133 0.3821169,0.90625 0.90625,0.90625 l 37.5625,0 c 0.524133,0 0.90625,-0.382117 0.90625,-0.90625 l 0,-28.125 c 0,-0.5241331 -0.382117,-0.90625 -0.90625,-0.90625 l -37.5625,0 z" id="3" fill="url(#H)"/>
 <rect width="32.615" height="23.508" x="7.692" y="12.246" id="4" fill="#183768"/>
 <path d="m 8.96875,13.53125 0,20.9375 30.0625,0 0,-20.9375 -30.0625,0 z" id="5" fill="url(#I)"/>
 <g transform="translate(1.1875,1.03125)" id="6">
  <g id="M">
   <path d="m 17.21875,15.125 c -1.796391,0 -3.28125,1.48486 -3.28125,3.28125 l 0,9.125 c 0,1.796391 1.48486,3.28125 3.28125,3.28125 l 11.1875,0 c 1.796391,0 3.28125,-1.48486 3.28125,-3.28125 l 0,-9.125 c 0,-1.796391 -1.48486,-3.28125 -3.28125,-3.28125 l -11.1875,0 z" id="Z" fill="#183768"/>
   <rect width="15.08" height="12.994" x="15.276" y="16.481" id="a" fill="#729fcf" rx="1.932"/>
   <rect width="11.259" height="3.204" x="17.18" y="18.604" id="b" fill="#eeeeec" rx="0.864"/>
   <rect width="11.258" height="3.204" x="17.18" y="24.15" id="c" fill="#eeeeec" rx="0.864"/>
  </g>
 </g>
 <path d="m 5.21875,9.5 c -0.2768191,0 -0.4375,0.1606809 -0.4375,0.4375 l 0,28.125 c 0,0.276819 0.1606809,0.4375 0.4375,0.4375 l 37.5625,0 c 0.276819,0 0.4375,-0.160681 0.4375,-0.4375 l 0,-28.125 C 43.21875,9.6606809 43.058069,9.5 42.78125,9.5 l -37.5625,0 z" id="7" opacity="0.8" fill="none" stroke="url(#J)" stroke-linejoin="round" stroke-linecap="round" stroke-width="1.042"/>
 <path d="m 9.53125,14.09375 0,19.8125 28.9375,0 0,-19.8125 -28.9375,0 z" id="8" opacity="0.6" fill="none" stroke="url(#K)" stroke-linecap="round" stroke-width="1.042"/>
 <path d="m 8.96875,13.53125 0,15.5625 c 10.267155,-2.287078 20.360583,-3.97296 30.0625,-4.1875 l 0,-11.375 -30.0625,0 z" id="9" opacity="0.6" fill="url(#L)"/>
</svg>
