<?xml version="1.0" encoding="utf-8"?>
<svg version="1.1" id="Layer_1" xmlns="http://www.w3.org/2000/svg" xmlns:xlink="http://www.w3.org/1999/xlink" x="0px" y="0px"
	 viewBox="0 0 2618.391 569.496" enable-background="new 0 0 2618.391 569.496" xml:space="preserve">
<path d="M2459.104,214.577c-7.799-3.282-17.963-4.835-21.775-13.444c-28.603-64.593-52.839-129.181-125.575-153.352
	c-63.534-28.188-139.133-26.095-204.67-6.114c-88.401,26.951-154.257,101.019-210.452,170.723
	c-6.53,7.27-14.541,16.553-25.376,15.176c-38.354-19.229-47.213-58.972-163.091-105.81c-8.682-8.47-10.588-21.988-17.576-31.905
	c-67.994-96.496-277.25-68.318-326.677,83.928c-33.236,10.932-37.365,11.959-53.434,43.588c-0.43-0.886-0.856-1.777-1.281-2.671
	c-0.425,0.894-0.851,1.785-1.281,2.671c-16.064-31.618-20.177-32.649-53.434-43.588C1205.085,21.631,995.828-6.69,927.803,89.85
	c-6.988,9.917-8.894,23.435-17.576,31.905c-115.799,46.806-124.833,86.629-163.091,105.81c-10.835,1.377-18.847-7.906-25.376-15.176
	C665.565,142.685,599.708,68.617,511.308,41.666c-65.537-19.981-141.136-22.074-204.67,6.114
	c-72.737,24.171-96.972,88.76-125.575,153.352c-3.812,8.609-13.976,10.162-21.775,13.444C5.77,273.8,15.211,390.065,50.66,444.106
	c48.477,73.901,131.76,56.479,207.061,51.337c34.623-2.364,60.704,25.87,92.186,35.505
	c125.483,38.014,253.287-16.516,302.255-140.428c2.464-6.236,16.746-55.02,11.822-57.04
	c219.409,89.995,367.235,193.656,559.289,181.796c26.816-1.656,59.527-13.751,85.922-10.12c26.395-3.631,59.106,8.464,85.922,10.12
	c192.052,11.86,339.838-91.783,559.289-181.796c-4.923,2.02,9.358,50.803,11.823,57.04
	c48.967,123.911,176.772,178.441,302.255,140.428c31.481-9.635,57.563-37.87,92.186-35.505
	c75.301,5.142,158.584,22.564,207.061-51.337C2603.776,389.156,2611.776,273.474,2459.104,214.577z M1584.248,270.906
	c-92.338-2.656-16.22-146.001,90.245-122.433C1686.78,203.605,1638.296,272.233,1584.248,270.906z M1642.8,88.474
	c10.023,6.212,14.965,17.364,20.788,27.105c-25.341,1.729-51.246,4.129-74.505,15.282c-75.883,33.459-94.894,111.006-65.081,147.033
	c39.764,47.269,179.975,36.83,183.95-121.657c48.76,20.897,71.869,34.489,141.562,94.057c-12.317,13.87-29.082,22.341-43.517,33.705
	c-93.553,73.653-215.502,100.38-309.325,61.269c-19.125-7.973-29.148-10.71-27.919-32.089c2.358-41.026-2.898-81.045-29.384-113.144
	c-9.07-11.682-22.623-18.141-34.411-26.541C1387.618,145.226,1528.415,18.083,1642.8,88.474z M1397.44,185.001
	c31.835,12.386,63.782,54.164,56.646,136.127c-15.741-9.529-26.329-24.458-36.423-39.352
	C1395.146,255.165,1392.287,218.142,1397.44,185.001z M1200.728,281.776c-10.094,14.894-20.682,29.823-36.423,39.352
	c-7.162-82.264,25.036-123.828,56.646-136.127C1226.104,218.142,1223.245,255.165,1200.728,281.776z M943.897,148.473
	c81.226-17.981,142.423,60.608,130.339,98.645c-9.771,27.514-63.713,39.286-105.457-10.023
	C949.368,212.46,936.874,179.99,943.897,148.473z M910.439,156.237c0.812,32.364,5.823,65.928,24.811,93.069
	c19.8,30.917,54.705,51.917,91.657,52.976c111.192,5.01,104.242-126.515,2.4-171.421c-23.258-11.153-49.164-13.553-74.505-15.282
	c5.823-9.741,10.764-20.894,20.788-27.105c114.309-70.344,255.164,56.781,237.843,85.022
	c-15.554,11.084-69.944,32.71-63.795,139.684c1.229,21.379-8.795,24.116-27.919,32.089c-93.71,39.064-215.634,12.492-309.325-61.269
	c-14.435-11.365-31.2-19.835-43.517-33.705C838.038,191.181,861.02,177.416,910.439,156.237z M134.97,474.443
	c-36.988-9.776-67.763-39.811-79.093-76.269c-16.126-51.615,21.723-109.005,39.07-120.88c23.611-16.341,47.258-35.188,76.41-39.988
	c-4.412,42.317-12.176,85.798-1.376,127.833c6.635,22.164,12.317,45.705,28.552,63.105c9.529,17.576,24.776,30.423,39.317,43.693
	C204.075,478.114,168.71,484.043,134.97,474.443z M196.098,244.294c7.695-31.715,62.249-28.343,97.269-27.211
	c-16.553,56.717-13.376,120.033,14.682,172.55c10.623,20.435,32.788,29.964,47.329,46.729c-7.376,9.917-21.141,9.776-32.047,12.917
	c-17.505,2.929-33.811,10.729-51.352,13.129C209.784,429.556,170.522,339.826,196.098,244.294z M503.552,217.976
	c-56.594-21.901-125.155,5.874-178.929-22.248c54.444-107.283,248.674-73.411,306.063,60.704
	c1.462,3.416,12.402,40.567,12.075,40.55C587.452,294.112,553.208,237.192,503.552,217.976z M619.232,314.281
	c-8.964,5.612-18.812,9.494-28.976,12.353c-2.4-9.67-4.235-19.447-5.612-29.294C596.574,302.14,608.115,307.858,619.232,314.281z
	 M540.245,256.541c-17.188-4.906-33.564-12.247-50.823-16.906c-18.988-6.071-39.035-9.953-56.258-20.435
	C472.199,215.142,511.446,230.459,540.245,256.541z M385.13,230.742c-16.076,51.019-9.69,101.982,42.705,99.528
	c-12.388-15.176-36.07-21.211-40.199-42.352c-3.247-17.153,0.318-36.494,11.576-50.152c37.835,0.847,73.728,15.847,108.563,29.47
	c59.726,20.27,65.279,25.856,69.317,66.634c-16.825,18.102-188.466,90.309-193.091,91.869c-12.494,4.165-21.705-7.87-31.235-13.694
	c-74.68-41.111-60.648-195.108-31.623-192.067C342.778,221.036,364.237,225.06,385.13,230.742z M573.28,371.916
	c-25.381,53.24-99.648,70.492-141.774,68.116c8.435-5.929,17.647-10.588,27.176-14.47C497.822,409.75,533.716,386.81,573.28,371.916
	z M595.621,449.808c-10.129,14.541-25.482,23.929-39.105,34.835c-17.788,14.435-39.67,21.988-60.246,31.517
	c-44.223,17.858-93.634,7.447-136.833-8.435c-18.494-7.588-38.364-12.6-54.846-24.282c27.035-10.376,55.764-15.882,82.375-27.458
	c29.099-12.933,42.139,12.024,119.927-13.906c18.317-6.459,39.388-9.388,53.011-24.635c16.058-14.718,23.011-35.823,34.446-53.681
	c14.4-13.659,33.529-20.964,50.717-30.494C631.994,399.374,634.897,393.598,595.621,449.808z M660.871,284.753
	C629.508,142.145,458.643,91.478,380.756,121.896c-51.57,20.121-69.377,61.688-79.165,72.564
	c-29.929,3.918-60.528,2.153-90.563,6.423c12-27.952,19.129-58.834,39.387-82.41C305.56,49.916,424.021,40.52,502.123,67.207
	c94.106,32.155,158.92,115.681,212.581,183.919C699.144,265.655,680.754,277.142,660.871,284.753z M792.864,371.309
	c-38.603-17.691-81.035-33.326-116.421-57.027c22.235-15.388,42.74-33.846,68.187-43.94
	c89.516,81.48,205.771,129.593,327.837,122.121c8.941-0.547,92.975-23.451,89.827-29.193
	c16.12,29.406,21.864,60.065,119.751,127.868C1112.712,523.035,968.821,451.944,792.864,371.309z M1309.195,479.435
	c-19.713,3.084-32.365-13.532-51.362-23.415c-12.353-6.467-60.946-50.501-77.822-91.622
	c-10.242-23.953,51.677-32.001,73.975-120.033c4.87-18.706,2.471-38.117,2.859-57.175c34.8,9.882,55.87,54.281,38.117,86.645
	c-9.035,15.776-29.329,14.082-44.646,18.176c10.765,9.424,26.47,9.106,39.105,3.882c8.996-3.958,14.445-12.496,19.775-20.384
	c5.33,7.888,10.779,16.425,19.775,20.384c12.635,5.223,28.341,5.541,39.105-3.882c-15.317-4.094-35.611-2.4-44.646-18.176
	c-17.753-32.364,3.318-76.763,38.117-86.645c0.388,19.058-2.012,38.47,2.859,57.175c22.398,88.426,84.262,95.976,73.975,120.033
	c-16.909,41.2-65.567,85.206-77.822,91.622C1341.607,465.878,1328.892,482.516,1309.195,479.435z M1825.526,371.309
	c-181.126,83.004-321.191,151.474-489.18,119.829c98.182-68.008,103.827-98.822,119.751-127.868
	c-3.148,5.742,80.886,28.646,89.827,29.193c32.074,1.963,64.398,0.036,96.055-5.437c86.301-14.921,167.221-57.919,231.781-116.684
	c25.447,10.094,45.952,28.552,68.187,43.94C1906.561,337.983,1864.13,353.618,1825.526,371.309z M1957.519,284.753
	c-19.882-7.611-38.272-19.098-53.833-33.626c53.573-68.126,118.404-151.74,212.581-183.919
	c78.103-26.687,196.563-17.29,251.708,51.266c20.258,23.576,27.388,54.458,39.387,82.41c-30.035-4.27-60.634-2.506-90.563-6.423
	c-9.776-10.862-27.509-52.41-79.165-72.564C2159.873,91.527,1988.923,141.961,1957.519,284.753z M2041.299,333.869
	c3.985-40.249,8.614-46.033,69.317-66.634c34.835-13.623,70.728-28.623,108.563-29.47c11.259,13.659,14.823,33,11.576,50.152
	c-4.129,21.141-27.811,27.176-40.199,42.352c52.552,2.462,58.719-48.704,42.705-99.528c20.894-5.682,42.352-9.706,63.987-10.764
	c29.274-3.067,42.712,151.146-31.623,192.067c-9.529,5.824-18.741,17.858-31.235,13.694
	C2231.137,424.641,2058.463,352.336,2041.299,333.869z M2186.885,440.032c-41.154,2.32-116.135-14.333-141.774-68.116
	c39.564,14.894,75.457,37.835,114.598,53.646C2169.238,429.444,2178.45,434.103,2186.885,440.032z M1975.629,296.982
	c-0.327,0.017,10.614-37.134,12.076-40.55c57.516-134.411,251.773-167.683,306.063-60.704
	c-53.774,28.122-122.335,0.347-178.929,22.248C2065.166,237.198,2030.931,294.113,1975.629,296.982z M2033.746,297.341
	c-1.376,9.847-3.212,19.623-5.612,29.294c-10.164-2.859-20.011-6.741-28.976-12.353
	C2010.276,307.858,2021.817,302.14,2033.746,297.341z M2185.226,219.201c-17.223,10.482-37.27,14.364-56.258,20.435
	c-17.258,4.659-33.635,12-50.823,16.906C2106.945,230.459,2146.191,215.142,2185.226,219.201z M2122.121,516.16
	c-20.576-9.529-42.458-17.082-60.246-31.517c-13.624-10.906-28.976-20.294-39.105-34.835
	c-39.268-56.199-36.371-50.418-49.446-116.539c17.188,9.529,36.317,16.835,50.717,30.494c11.435,17.858,18.388,38.964,34.446,53.681
	c13.623,15.247,34.694,18.176,53.011,24.635c77.757,25.92,90.857,0.985,119.927,13.906c26.611,11.576,55.34,17.082,82.375,27.458
	C2303.986,490.4,2196.827,546.329,2122.121,516.16z M2346.412,462.408c-17.541-2.4-33.846-10.2-51.352-13.129
	c-10.906-3.141-24.67-3-32.046-12.917c14.541-16.764,36.705-26.294,47.328-46.729c28.058-52.517,31.235-115.833,14.682-172.55
	c34.719-1.122,89.577-4.488,97.269,27.211C2447.842,339.728,2408.674,429.521,2346.412,462.408z M2483.421,474.443
	c-33.74,9.6-69.104,3.671-102.88-2.506c53.585-48.903,57.205-71.174,67.869-106.798c10.8-42.035,3.035-85.516-1.376-127.833
	c29.152,4.8,52.799,23.647,76.41,39.988c14.435,9.882,21.635,26.329,29.682,41.187
	C2591.555,391.914,2540.318,459.405,2483.421,474.443z"/>
</svg>
